<mxfile host="app.diagrams.net" modified="2023-04-23T18:47:03.749Z" agent="Mozilla/5.0 (Windows NT 10.0; Win64; x64; rv:109.0) Gecko/20100101 Firefox/112.0" etag="Yz9fGCbT77KL5IlWauER" version="21.2.1" type="device">
  <diagram name="Page-1" id="WtfJnqBQHTjOrYqxy1lE">
    <mxGraphModel dx="1687" dy="2135" grid="1" gridSize="10" guides="1" tooltips="1" connect="1" arrows="1" fold="1" page="1" pageScale="1" pageWidth="827" pageHeight="1169" math="0" shadow="0">
      <root>
        <mxCell id="0" />
        <mxCell id="1" parent="0" />
        <mxCell id="p7GBY2X_nWyyRQyz9_gC-29" style="edgeStyle=orthogonalEdgeStyle;rounded=0;orthogonalLoop=1;jettySize=auto;html=1;exitX=0.5;exitY=0;exitDx=0;exitDy=0;entryX=0.5;entryY=1;entryDx=0;entryDy=0;fillColor=#dae8fc;strokeColor=#6c8ebf;" edge="1" parent="1" source="p7GBY2X_nWyyRQyz9_gC-1" target="p7GBY2X_nWyyRQyz9_gC-9">
          <mxGeometry relative="1" as="geometry" />
        </mxCell>
        <mxCell id="p7GBY2X_nWyyRQyz9_gC-32" style="edgeStyle=orthogonalEdgeStyle;rounded=0;orthogonalLoop=1;jettySize=auto;html=1;exitX=0.5;exitY=1;exitDx=0;exitDy=0;entryX=0.5;entryY=0;entryDx=0;entryDy=0;fillColor=#1ba1e2;strokeColor=#006EAF;" edge="1" parent="1" source="p7GBY2X_nWyyRQyz9_gC-1" target="p7GBY2X_nWyyRQyz9_gC-13">
          <mxGeometry relative="1" as="geometry">
            <mxPoint x="790" y="170" as="targetPoint" />
          </mxGeometry>
        </mxCell>
        <mxCell id="p7GBY2X_nWyyRQyz9_gC-1" value="Statistics" style="swimlane;fontStyle=0;childLayout=stackLayout;horizontal=1;startSize=26;fillColor=#dae8fc;horizontalStack=0;resizeParent=1;resizeParentMax=0;resizeLast=0;collapsible=1;marginBottom=0;whiteSpace=wrap;html=1;strokeColor=#6c8ebf;" vertex="1" collapsed="1" parent="1">
          <mxGeometry x="819" y="80" width="90" height="30" as="geometry">
            <mxRectangle x="380" y="460" width="140" height="52" as="alternateBounds" />
          </mxGeometry>
        </mxCell>
        <mxCell id="p7GBY2X_nWyyRQyz9_gC-2" value="+ field: type" style="text;strokeColor=none;fillColor=none;align=left;verticalAlign=top;spacingLeft=4;spacingRight=4;overflow=hidden;rotatable=0;points=[[0,0.5],[1,0.5]];portConstraint=eastwest;whiteSpace=wrap;html=1;" vertex="1" parent="p7GBY2X_nWyyRQyz9_gC-1">
          <mxGeometry y="26" width="140" height="26" as="geometry" />
        </mxCell>
        <mxCell id="p7GBY2X_nWyyRQyz9_gC-178" style="edgeStyle=orthogonalEdgeStyle;rounded=0;orthogonalLoop=1;jettySize=auto;html=1;exitX=1;exitY=0.5;exitDx=0;exitDy=0;entryX=0;entryY=0.5;entryDx=0;entryDy=0;fillColor=#ffcd28;strokeColor=#d79b00;gradientColor=#ffa500;" edge="1" parent="1" source="p7GBY2X_nWyyRQyz9_gC-5" target="p7GBY2X_nWyyRQyz9_gC-172">
          <mxGeometry relative="1" as="geometry" />
        </mxCell>
        <mxCell id="p7GBY2X_nWyyRQyz9_gC-179" style="edgeStyle=orthogonalEdgeStyle;rounded=0;orthogonalLoop=1;jettySize=auto;html=1;exitX=1;exitY=0.5;exitDx=0;exitDy=0;entryX=0;entryY=0.5;entryDx=0;entryDy=0;fillColor=#ffcd28;gradientColor=#ffa500;strokeColor=#d79b00;" edge="1" parent="1" source="p7GBY2X_nWyyRQyz9_gC-5" target="p7GBY2X_nWyyRQyz9_gC-174">
          <mxGeometry relative="1" as="geometry">
            <Array as="points">
              <mxPoint x="410" y="-265" />
              <mxPoint x="410" y="215" />
            </Array>
          </mxGeometry>
        </mxCell>
        <mxCell id="p7GBY2X_nWyyRQyz9_gC-180" style="edgeStyle=orthogonalEdgeStyle;rounded=0;orthogonalLoop=1;jettySize=auto;html=1;exitX=1;exitY=0.5;exitDx=0;exitDy=0;entryX=1;entryY=0.5;entryDx=0;entryDy=0;fillColor=#ffcd28;gradientColor=#ffa500;strokeColor=#d79b00;" edge="1" parent="1" source="p7GBY2X_nWyyRQyz9_gC-5" target="p7GBY2X_nWyyRQyz9_gC-11">
          <mxGeometry relative="1" as="geometry">
            <Array as="points">
              <mxPoint x="730" y="-265" />
              <mxPoint x="730" y="95" />
            </Array>
          </mxGeometry>
        </mxCell>
        <mxCell id="p7GBY2X_nWyyRQyz9_gC-181" style="edgeStyle=orthogonalEdgeStyle;rounded=0;orthogonalLoop=1;jettySize=auto;html=1;exitX=1;exitY=0.5;exitDx=0;exitDy=0;entryX=0;entryY=0.5;entryDx=0;entryDy=0;fillColor=#ffcd28;gradientColor=#ffa500;strokeColor=#d79b00;" edge="1" parent="1" source="p7GBY2X_nWyyRQyz9_gC-5" target="p7GBY2X_nWyyRQyz9_gC-59">
          <mxGeometry relative="1" as="geometry" />
        </mxCell>
        <mxCell id="p7GBY2X_nWyyRQyz9_gC-182" style="edgeStyle=orthogonalEdgeStyle;rounded=0;orthogonalLoop=1;jettySize=auto;html=1;exitX=1;exitY=0.5;exitDx=0;exitDy=0;entryX=0.25;entryY=1;entryDx=0;entryDy=0;fillColor=#ffcd28;gradientColor=#ffa500;strokeColor=#d79b00;" edge="1" parent="1" source="p7GBY2X_nWyyRQyz9_gC-5" target="p7GBY2X_nWyyRQyz9_gC-53">
          <mxGeometry relative="1" as="geometry" />
        </mxCell>
        <mxCell id="p7GBY2X_nWyyRQyz9_gC-183" style="edgeStyle=orthogonalEdgeStyle;rounded=0;orthogonalLoop=1;jettySize=auto;html=1;exitX=1;exitY=0.5;exitDx=0;exitDy=0;entryX=0.25;entryY=1;entryDx=0;entryDy=0;fillColor=#ffcd28;gradientColor=#ffa500;strokeColor=#d79b00;" edge="1" parent="1" source="p7GBY2X_nWyyRQyz9_gC-5" target="p7GBY2X_nWyyRQyz9_gC-48">
          <mxGeometry relative="1" as="geometry" />
        </mxCell>
        <mxCell id="p7GBY2X_nWyyRQyz9_gC-184" style="edgeStyle=orthogonalEdgeStyle;rounded=0;orthogonalLoop=1;jettySize=auto;html=1;exitX=1;exitY=0.5;exitDx=0;exitDy=0;entryX=0;entryY=0.5;entryDx=0;entryDy=0;fillColor=#ffcd28;gradientColor=#ffa500;strokeColor=#d79b00;" edge="1" parent="1" source="p7GBY2X_nWyyRQyz9_gC-5" target="p7GBY2X_nWyyRQyz9_gC-38">
          <mxGeometry relative="1" as="geometry">
            <Array as="points">
              <mxPoint x="950" y="-265" />
              <mxPoint x="950" y="95" />
            </Array>
          </mxGeometry>
        </mxCell>
        <mxCell id="p7GBY2X_nWyyRQyz9_gC-185" style="edgeStyle=orthogonalEdgeStyle;rounded=0;orthogonalLoop=1;jettySize=auto;html=1;exitX=1;exitY=0.5;exitDx=0;exitDy=0;entryX=0;entryY=0.5;entryDx=0;entryDy=0;fillColor=#ffcd28;gradientColor=#ffa500;strokeColor=#d79b00;" edge="1" parent="1" source="p7GBY2X_nWyyRQyz9_gC-5" target="p7GBY2X_nWyyRQyz9_gC-1">
          <mxGeometry relative="1" as="geometry">
            <Array as="points">
              <mxPoint x="790" y="-265" />
              <mxPoint x="790" y="95" />
            </Array>
          </mxGeometry>
        </mxCell>
        <mxCell id="p7GBY2X_nWyyRQyz9_gC-186" style="edgeStyle=orthogonalEdgeStyle;rounded=0;orthogonalLoop=1;jettySize=auto;html=1;exitX=0;exitY=0.5;exitDx=0;exitDy=0;entryX=0.25;entryY=0;entryDx=0;entryDy=0;fillColor=#ffcd28;gradientColor=#ffa500;strokeColor=#d79b00;" edge="1" parent="1" source="p7GBY2X_nWyyRQyz9_gC-5" target="p7GBY2X_nWyyRQyz9_gC-126">
          <mxGeometry relative="1" as="geometry">
            <mxPoint x="80" y="-991.0526315789474" as="targetPoint" />
            <Array as="points">
              <mxPoint x="70" y="-265" />
              <mxPoint x="70" y="-1000" />
              <mxPoint x="1418" y="-1000" />
            </Array>
          </mxGeometry>
        </mxCell>
        <mxCell id="p7GBY2X_nWyyRQyz9_gC-187" style="edgeStyle=orthogonalEdgeStyle;rounded=0;orthogonalLoop=1;jettySize=auto;html=1;exitX=0;exitY=0.5;exitDx=0;exitDy=0;entryX=0.25;entryY=0;entryDx=0;entryDy=0;fillColor=#ffcd28;gradientColor=#ffa500;strokeColor=#d79b00;" edge="1" parent="1" source="p7GBY2X_nWyyRQyz9_gC-5" target="p7GBY2X_nWyyRQyz9_gC-121">
          <mxGeometry relative="1" as="geometry">
            <Array as="points">
              <mxPoint x="70" y="-265" />
              <mxPoint x="70" y="-1000" />
              <mxPoint x="1250" y="-1000" />
            </Array>
          </mxGeometry>
        </mxCell>
        <mxCell id="p7GBY2X_nWyyRQyz9_gC-188" style="edgeStyle=orthogonalEdgeStyle;rounded=0;orthogonalLoop=1;jettySize=auto;html=1;exitX=0;exitY=0.5;exitDx=0;exitDy=0;entryX=0.25;entryY=0;entryDx=0;entryDy=0;fillColor=#ffcd28;gradientColor=#ffa500;strokeColor=#d79b00;" edge="1" parent="1" source="p7GBY2X_nWyyRQyz9_gC-5" target="p7GBY2X_nWyyRQyz9_gC-114">
          <mxGeometry relative="1" as="geometry">
            <Array as="points">
              <mxPoint x="70" y="-265" />
              <mxPoint x="70" y="-1000" />
              <mxPoint x="1078" y="-1000" />
            </Array>
          </mxGeometry>
        </mxCell>
        <mxCell id="p7GBY2X_nWyyRQyz9_gC-189" style="edgeStyle=orthogonalEdgeStyle;rounded=0;orthogonalLoop=1;jettySize=auto;html=1;exitX=0;exitY=0.5;exitDx=0;exitDy=0;entryX=0.25;entryY=0;entryDx=0;entryDy=0;fillColor=#ffcd28;gradientColor=#ffa500;strokeColor=#d79b00;" edge="1" parent="1" source="p7GBY2X_nWyyRQyz9_gC-5" target="p7GBY2X_nWyyRQyz9_gC-106">
          <mxGeometry relative="1" as="geometry">
            <Array as="points">
              <mxPoint x="70" y="-265" />
              <mxPoint x="70" y="-1000" />
              <mxPoint x="950" y="-1000" />
            </Array>
          </mxGeometry>
        </mxCell>
        <mxCell id="p7GBY2X_nWyyRQyz9_gC-190" style="edgeStyle=orthogonalEdgeStyle;rounded=0;orthogonalLoop=1;jettySize=auto;html=1;exitX=1;exitY=0.5;exitDx=0;exitDy=0;entryX=0.25;entryY=1;entryDx=0;entryDy=0;fillColor=#ffcd28;gradientColor=#ffa500;strokeColor=#d79b00;" edge="1" parent="1" source="p7GBY2X_nWyyRQyz9_gC-5" target="p7GBY2X_nWyyRQyz9_gC-83">
          <mxGeometry relative="1" as="geometry" />
        </mxCell>
        <mxCell id="p7GBY2X_nWyyRQyz9_gC-191" style="edgeStyle=orthogonalEdgeStyle;rounded=0;orthogonalLoop=1;jettySize=auto;html=1;exitX=1;exitY=0.5;exitDx=0;exitDy=0;entryX=1;entryY=0.75;entryDx=0;entryDy=0;fillColor=#ffcd28;gradientColor=#ffa500;strokeColor=#d79b00;" edge="1" parent="1" source="p7GBY2X_nWyyRQyz9_gC-5" target="p7GBY2X_nWyyRQyz9_gC-150">
          <mxGeometry relative="1" as="geometry" />
        </mxCell>
        <mxCell id="p7GBY2X_nWyyRQyz9_gC-192" style="edgeStyle=orthogonalEdgeStyle;rounded=0;orthogonalLoop=1;jettySize=auto;html=1;exitX=1;exitY=0.5;exitDx=0;exitDy=0;entryX=1;entryY=0.75;entryDx=0;entryDy=0;fillColor=#ffcd28;gradientColor=#ffa500;strokeColor=#d79b00;" edge="1" parent="1" source="p7GBY2X_nWyyRQyz9_gC-5" target="p7GBY2X_nWyyRQyz9_gC-146">
          <mxGeometry relative="1" as="geometry">
            <Array as="points">
              <mxPoint x="460" y="-265" />
              <mxPoint x="460" y="-587" />
            </Array>
          </mxGeometry>
        </mxCell>
        <mxCell id="p7GBY2X_nWyyRQyz9_gC-193" style="edgeStyle=orthogonalEdgeStyle;rounded=0;orthogonalLoop=1;jettySize=auto;html=1;exitX=1;exitY=0.5;exitDx=0;exitDy=0;entryX=1;entryY=0.75;entryDx=0;entryDy=0;fillColor=#ffcd28;gradientColor=#ffa500;strokeColor=#d79b00;" edge="1" parent="1" source="p7GBY2X_nWyyRQyz9_gC-5" target="p7GBY2X_nWyyRQyz9_gC-142">
          <mxGeometry relative="1" as="geometry">
            <Array as="points">
              <mxPoint x="460" y="-265" />
              <mxPoint x="460" y="-517" />
            </Array>
          </mxGeometry>
        </mxCell>
        <mxCell id="p7GBY2X_nWyyRQyz9_gC-194" style="edgeStyle=orthogonalEdgeStyle;rounded=0;orthogonalLoop=1;jettySize=auto;html=1;exitX=1;exitY=0.5;exitDx=0;exitDy=0;entryX=0.25;entryY=1;entryDx=0;entryDy=0;fillColor=#ffcd28;gradientColor=#ffa500;strokeColor=#d79b00;" edge="1" parent="1" source="p7GBY2X_nWyyRQyz9_gC-5" target="p7GBY2X_nWyyRQyz9_gC-69">
          <mxGeometry relative="1" as="geometry">
            <Array as="points">
              <mxPoint x="410" y="-265" />
              <mxPoint x="410" y="280" />
              <mxPoint x="1155" y="280" />
            </Array>
          </mxGeometry>
        </mxCell>
        <mxCell id="p7GBY2X_nWyyRQyz9_gC-195" style="edgeStyle=orthogonalEdgeStyle;rounded=0;orthogonalLoop=1;jettySize=auto;html=1;exitX=1;exitY=0.5;exitDx=0;exitDy=0;entryX=0.25;entryY=1;entryDx=0;entryDy=0;fillColor=#ffcd28;gradientColor=#ffa500;strokeColor=#d79b00;" edge="1" parent="1" source="p7GBY2X_nWyyRQyz9_gC-5" target="p7GBY2X_nWyyRQyz9_gC-76">
          <mxGeometry relative="1" as="geometry">
            <Array as="points">
              <mxPoint x="410" y="-265" />
              <mxPoint x="410" y="280" />
              <mxPoint x="1330" y="280" />
            </Array>
          </mxGeometry>
        </mxCell>
        <mxCell id="p7GBY2X_nWyyRQyz9_gC-5" value="Main" style="swimlane;fontStyle=0;childLayout=stackLayout;horizontal=1;startSize=26;fillColor=none;horizontalStack=0;resizeParent=1;resizeParentMax=0;resizeLast=0;collapsible=1;marginBottom=0;whiteSpace=wrap;html=1;" vertex="1" collapsed="1" parent="1">
          <mxGeometry x="240" y="-280" width="70" height="30" as="geometry">
            <mxRectangle x="140" y="290" width="140" height="52" as="alternateBounds" />
          </mxGeometry>
        </mxCell>
        <mxCell id="p7GBY2X_nWyyRQyz9_gC-6" value="+ field: type" style="text;strokeColor=none;fillColor=none;align=left;verticalAlign=top;spacingLeft=4;spacingRight=4;overflow=hidden;rotatable=0;points=[[0,0.5],[1,0.5]];portConstraint=eastwest;whiteSpace=wrap;html=1;" vertex="1" parent="p7GBY2X_nWyyRQyz9_gC-5">
          <mxGeometry y="26" width="140" height="26" as="geometry" />
        </mxCell>
        <mxCell id="p7GBY2X_nWyyRQyz9_gC-7" value="Account" style="swimlane;fontStyle=0;childLayout=stackLayout;horizontal=1;startSize=26;fillColor=#60a917;horizontalStack=0;resizeParent=1;resizeParentMax=0;resizeLast=0;collapsible=1;marginBottom=0;whiteSpace=wrap;html=1;fontColor=#ffffff;strokeColor=#2D7600;" vertex="1" collapsed="1" parent="1">
          <mxGeometry x="610" y="-30" width="80" height="30" as="geometry">
            <mxRectangle x="220" y="320" width="140" height="52" as="alternateBounds" />
          </mxGeometry>
        </mxCell>
        <mxCell id="p7GBY2X_nWyyRQyz9_gC-8" value="+ field: type" style="text;strokeColor=none;fillColor=none;align=left;verticalAlign=top;spacingLeft=4;spacingRight=4;overflow=hidden;rotatable=0;points=[[0,0.5],[1,0.5]];portConstraint=eastwest;whiteSpace=wrap;html=1;" vertex="1" parent="p7GBY2X_nWyyRQyz9_gC-7">
          <mxGeometry y="26" width="140" height="26" as="geometry" />
        </mxCell>
        <mxCell id="p7GBY2X_nWyyRQyz9_gC-9" value="GameStatistic" style="swimlane;fontStyle=0;childLayout=stackLayout;horizontal=1;startSize=26;fillColor=#1ba1e2;horizontalStack=0;resizeParent=1;resizeParentMax=0;resizeLast=0;collapsible=1;marginBottom=0;whiteSpace=wrap;html=1;fontColor=#ffffff;strokeColor=#006EAF;" vertex="1" collapsed="1" parent="1">
          <mxGeometry x="804" y="-30" width="120" height="30" as="geometry">
            <mxRectangle x="380" y="320" width="140" height="52" as="alternateBounds" />
          </mxGeometry>
        </mxCell>
        <mxCell id="p7GBY2X_nWyyRQyz9_gC-10" value="+ field: type" style="text;strokeColor=none;fillColor=none;align=left;verticalAlign=top;spacingLeft=4;spacingRight=4;overflow=hidden;rotatable=0;points=[[0,0.5],[1,0.5]];portConstraint=eastwest;whiteSpace=wrap;html=1;" vertex="1" parent="p7GBY2X_nWyyRQyz9_gC-9">
          <mxGeometry y="26" width="140" height="26" as="geometry" />
        </mxCell>
        <mxCell id="p7GBY2X_nWyyRQyz9_gC-28" style="edgeStyle=orthogonalEdgeStyle;rounded=0;orthogonalLoop=1;jettySize=auto;html=1;exitX=0.5;exitY=0;exitDx=0;exitDy=0;entryX=0.5;entryY=1;entryDx=0;entryDy=0;fillColor=#d5e8d4;strokeColor=#82b366;" edge="1" parent="1" source="p7GBY2X_nWyyRQyz9_gC-11" target="p7GBY2X_nWyyRQyz9_gC-7">
          <mxGeometry relative="1" as="geometry" />
        </mxCell>
        <mxCell id="p7GBY2X_nWyyRQyz9_gC-31" style="edgeStyle=orthogonalEdgeStyle;rounded=0;orthogonalLoop=1;jettySize=auto;html=1;exitX=0.5;exitY=1;exitDx=0;exitDy=0;entryX=0.5;entryY=0;entryDx=0;entryDy=0;fillColor=#1ba1e2;strokeColor=#006EAF;" edge="1" parent="1" source="p7GBY2X_nWyyRQyz9_gC-11" target="p7GBY2X_nWyyRQyz9_gC-13">
          <mxGeometry relative="1" as="geometry" />
        </mxCell>
        <mxCell id="p7GBY2X_nWyyRQyz9_gC-11" value="AccountList" style="swimlane;fontStyle=0;childLayout=stackLayout;horizontal=1;startSize=26;fillColor=#d5e8d4;horizontalStack=0;resizeParent=1;resizeParentMax=0;resizeLast=0;collapsible=1;marginBottom=0;whiteSpace=wrap;html=1;strokeColor=#82b366;" vertex="1" collapsed="1" parent="1">
          <mxGeometry x="600" y="80" width="100" height="30" as="geometry">
            <mxRectangle x="220" y="460" width="140" height="52" as="alternateBounds" />
          </mxGeometry>
        </mxCell>
        <mxCell id="p7GBY2X_nWyyRQyz9_gC-12" value="+ field: type" style="text;strokeColor=none;fillColor=none;align=left;verticalAlign=top;spacingLeft=4;spacingRight=4;overflow=hidden;rotatable=0;points=[[0,0.5],[1,0.5]];portConstraint=eastwest;whiteSpace=wrap;html=1;" vertex="1" parent="p7GBY2X_nWyyRQyz9_gC-11">
          <mxGeometry y="26" width="140" height="26" as="geometry" />
        </mxCell>
        <mxCell id="p7GBY2X_nWyyRQyz9_gC-13" value="DatabaseAccess" style="swimlane;fontStyle=0;childLayout=stackLayout;horizontal=1;startSize=26;fillColor=#0050ef;horizontalStack=0;resizeParent=1;resizeParentMax=0;resizeLast=0;collapsible=1;marginBottom=0;whiteSpace=wrap;html=1;fontColor=#ffffff;strokeColor=#001DBC;" vertex="1" collapsed="1" parent="1">
          <mxGeometry x="700" y="150" width="110" height="30" as="geometry">
            <mxRectangle x="310" y="650" width="160" height="52" as="alternateBounds" />
          </mxGeometry>
        </mxCell>
        <mxCell id="p7GBY2X_nWyyRQyz9_gC-14" value="+ field: type" style="text;strokeColor=none;fillColor=none;align=left;verticalAlign=top;spacingLeft=4;spacingRight=4;overflow=hidden;rotatable=0;points=[[0,0.5],[1,0.5]];portConstraint=eastwest;whiteSpace=wrap;html=1;" vertex="1" parent="p7GBY2X_nWyyRQyz9_gC-13">
          <mxGeometry y="26" width="160" height="26" as="geometry" />
        </mxCell>
        <mxCell id="p7GBY2X_nWyyRQyz9_gC-15" value="Distributor" style="swimlane;fontStyle=0;childLayout=stackLayout;horizontal=1;startSize=26;fillColor=none;horizontalStack=0;resizeParent=1;resizeParentMax=0;resizeLast=0;collapsible=1;marginBottom=0;whiteSpace=wrap;html=1;" vertex="1" collapsed="1" parent="1">
          <mxGeometry x="1500" y="-125" width="100" height="30" as="geometry">
            <mxRectangle x="600" y="320" width="140" height="52" as="alternateBounds" />
          </mxGeometry>
        </mxCell>
        <mxCell id="p7GBY2X_nWyyRQyz9_gC-16" value="+ field: type" style="text;strokeColor=none;fillColor=none;align=left;verticalAlign=top;spacingLeft=4;spacingRight=4;overflow=hidden;rotatable=0;points=[[0,0.5],[1,0.5]];portConstraint=eastwest;whiteSpace=wrap;html=1;" vertex="1" parent="p7GBY2X_nWyyRQyz9_gC-15">
          <mxGeometry y="26" width="140" height="26" as="geometry" />
        </mxCell>
        <mxCell id="p7GBY2X_nWyyRQyz9_gC-21" style="edgeStyle=orthogonalEdgeStyle;rounded=0;orthogonalLoop=1;jettySize=auto;html=1;exitX=0.5;exitY=0;exitDx=0;exitDy=0;entryX=0.5;entryY=1;entryDx=0;entryDy=0;endArrow=block;endFill=0;" edge="1" parent="1" source="p7GBY2X_nWyyRQyz9_gC-17" target="p7GBY2X_nWyyRQyz9_gC-15">
          <mxGeometry relative="1" as="geometry" />
        </mxCell>
        <mxCell id="p7GBY2X_nWyyRQyz9_gC-17" value="Event" style="swimlane;fontStyle=0;childLayout=stackLayout;horizontal=1;startSize=26;fillColor=none;horizontalStack=0;resizeParent=1;resizeParentMax=0;resizeLast=0;collapsible=1;marginBottom=0;whiteSpace=wrap;html=1;" vertex="1" collapsed="1" parent="1">
          <mxGeometry x="1515" y="-30" width="70" height="30" as="geometry">
            <mxRectangle x="590" y="420" width="140" height="52" as="alternateBounds" />
          </mxGeometry>
        </mxCell>
        <mxCell id="p7GBY2X_nWyyRQyz9_gC-18" value="+ field: type" style="text;strokeColor=none;fillColor=none;align=left;verticalAlign=top;spacingLeft=4;spacingRight=4;overflow=hidden;rotatable=0;points=[[0,0.5],[1,0.5]];portConstraint=eastwest;whiteSpace=wrap;html=1;" vertex="1" parent="p7GBY2X_nWyyRQyz9_gC-17">
          <mxGeometry y="26" width="140" height="26" as="geometry" />
        </mxCell>
        <mxCell id="p7GBY2X_nWyyRQyz9_gC-19" value="Listener" style="swimlane;fontStyle=0;childLayout=stackLayout;horizontal=1;startSize=26;fillColor=none;horizontalStack=0;resizeParent=1;resizeParentMax=0;resizeLast=0;collapsible=1;marginBottom=0;whiteSpace=wrap;html=1;" vertex="1" collapsed="1" parent="1">
          <mxGeometry x="1360" y="-220" width="90" height="30" as="geometry">
            <mxRectangle x="580" y="500" width="140" height="52" as="alternateBounds" />
          </mxGeometry>
        </mxCell>
        <mxCell id="p7GBY2X_nWyyRQyz9_gC-20" value="+ field: type" style="text;strokeColor=none;fillColor=none;align=left;verticalAlign=top;spacingLeft=4;spacingRight=4;overflow=hidden;rotatable=0;points=[[0,0.5],[1,0.5]];portConstraint=eastwest;whiteSpace=wrap;html=1;" vertex="1" parent="p7GBY2X_nWyyRQyz9_gC-19">
          <mxGeometry y="26" width="140" height="26" as="geometry" />
        </mxCell>
        <mxCell id="p7GBY2X_nWyyRQyz9_gC-24" style="edgeStyle=orthogonalEdgeStyle;rounded=0;orthogonalLoop=1;jettySize=auto;html=1;entryX=0.5;entryY=1;entryDx=0;entryDy=0;endArrow=block;endFill=0;" edge="1" parent="1" source="p7GBY2X_nWyyRQyz9_gC-22" target="p7GBY2X_nWyyRQyz9_gC-19">
          <mxGeometry relative="1" as="geometry" />
        </mxCell>
        <mxCell id="p7GBY2X_nWyyRQyz9_gC-22" value="Reseiver" style="swimlane;fontStyle=0;childLayout=stackLayout;horizontal=1;startSize=26;fillColor=#f0a30a;horizontalStack=0;resizeParent=1;resizeParentMax=0;resizeLast=0;collapsible=1;marginBottom=0;whiteSpace=wrap;html=1;fontColor=#000000;strokeColor=#BD7000;" vertex="1" collapsed="1" parent="1">
          <mxGeometry x="1360" y="-125.5" width="90" height="30" as="geometry">
            <mxRectangle x="615" y="598" width="140" height="52" as="alternateBounds" />
          </mxGeometry>
        </mxCell>
        <mxCell id="p7GBY2X_nWyyRQyz9_gC-23" value="+ field: type" style="text;strokeColor=none;fillColor=none;align=left;verticalAlign=top;spacingLeft=4;spacingRight=4;overflow=hidden;rotatable=0;points=[[0,0.5],[1,0.5]];portConstraint=eastwest;whiteSpace=wrap;html=1;" vertex="1" parent="p7GBY2X_nWyyRQyz9_gC-22">
          <mxGeometry y="26" width="140" height="26" as="geometry" />
        </mxCell>
        <mxCell id="p7GBY2X_nWyyRQyz9_gC-171" style="edgeStyle=orthogonalEdgeStyle;rounded=0;orthogonalLoop=1;jettySize=auto;html=1;exitX=1;exitY=0.5;exitDx=0;exitDy=0;entryX=0;entryY=0.5;entryDx=0;entryDy=0;" edge="1" parent="1" source="p7GBY2X_nWyyRQyz9_gC-25" target="p7GBY2X_nWyyRQyz9_gC-17">
          <mxGeometry relative="1" as="geometry" />
        </mxCell>
        <mxCell id="p7GBY2X_nWyyRQyz9_gC-25" value="Sender" style="swimlane;fontStyle=0;childLayout=stackLayout;horizontal=1;startSize=26;fillColor=#fa6800;horizontalStack=0;resizeParent=1;resizeParentMax=0;resizeLast=0;collapsible=1;marginBottom=0;whiteSpace=wrap;html=1;fontColor=#000000;strokeColor=#C73500;" vertex="1" collapsed="1" parent="1">
          <mxGeometry x="1360" y="-30" width="80" height="30" as="geometry">
            <mxRectangle x="750" y="400" width="140" height="52" as="alternateBounds" />
          </mxGeometry>
        </mxCell>
        <mxCell id="p7GBY2X_nWyyRQyz9_gC-26" value="+ field: type" style="text;strokeColor=none;fillColor=none;align=left;verticalAlign=top;spacingLeft=4;spacingRight=4;overflow=hidden;rotatable=0;points=[[0,0.5],[1,0.5]];portConstraint=eastwest;whiteSpace=wrap;html=1;" vertex="1" parent="p7GBY2X_nWyyRQyz9_gC-25">
          <mxGeometry y="26" width="140" height="26" as="geometry" />
        </mxCell>
        <mxCell id="p7GBY2X_nWyyRQyz9_gC-36" style="edgeStyle=orthogonalEdgeStyle;rounded=0;orthogonalLoop=1;jettySize=auto;html=1;exitX=1;exitY=0.5;exitDx=0;exitDy=0;entryX=0;entryY=0.5;entryDx=0;entryDy=0;fillColor=#f0a30a;strokeColor=#BD7000;" edge="1" parent="1" source="p7GBY2X_nWyyRQyz9_gC-33" target="p7GBY2X_nWyyRQyz9_gC-22">
          <mxGeometry relative="1" as="geometry">
            <mxPoint x="1290" y="-110" as="targetPoint" />
            <Array as="points">
              <mxPoint x="1220" y="-15" />
              <mxPoint x="1220" y="-80" />
              <mxPoint x="1290" y="-80" />
              <mxPoint x="1290" y="-110" />
            </Array>
          </mxGeometry>
        </mxCell>
        <mxCell id="p7GBY2X_nWyyRQyz9_gC-37" style="edgeStyle=orthogonalEdgeStyle;rounded=0;orthogonalLoop=1;jettySize=auto;html=1;exitX=1;exitY=0.5;exitDx=0;exitDy=0;entryX=0;entryY=0.5;entryDx=0;entryDy=0;fillColor=#fa6800;strokeColor=#C73500;" edge="1" parent="1" source="p7GBY2X_nWyyRQyz9_gC-33" target="p7GBY2X_nWyyRQyz9_gC-25">
          <mxGeometry relative="1" as="geometry">
            <Array as="points">
              <mxPoint x="1140" y="-15" />
              <mxPoint x="1140" y="-15" />
            </Array>
          </mxGeometry>
        </mxCell>
        <mxCell id="p7GBY2X_nWyyRQyz9_gC-33" value="Game" style="swimlane;fontStyle=0;childLayout=stackLayout;horizontal=1;startSize=26;fillColor=#a20025;horizontalStack=0;resizeParent=1;resizeParentMax=0;resizeLast=0;collapsible=1;marginBottom=0;whiteSpace=wrap;html=1;fontColor=#ffffff;strokeColor=#6F0000;" vertex="1" collapsed="1" parent="1">
          <mxGeometry x="1000" y="-30" width="70" height="30" as="geometry">
            <mxRectangle x="570" y="380" width="140" height="52" as="alternateBounds" />
          </mxGeometry>
        </mxCell>
        <mxCell id="p7GBY2X_nWyyRQyz9_gC-34" value="+ field: type" style="text;strokeColor=none;fillColor=none;align=left;verticalAlign=top;spacingLeft=4;spacingRight=4;overflow=hidden;rotatable=0;points=[[0,0.5],[1,0.5]];portConstraint=eastwest;whiteSpace=wrap;html=1;" vertex="1" parent="p7GBY2X_nWyyRQyz9_gC-33">
          <mxGeometry y="26" width="140" height="26" as="geometry" />
        </mxCell>
        <mxCell id="p7GBY2X_nWyyRQyz9_gC-46" style="edgeStyle=orthogonalEdgeStyle;rounded=0;orthogonalLoop=1;jettySize=auto;html=1;exitX=0.5;exitY=0;exitDx=0;exitDy=0;entryX=0.5;entryY=1;entryDx=0;entryDy=0;fillColor=#f8cecc;strokeColor=#b85450;" edge="1" parent="1" source="p7GBY2X_nWyyRQyz9_gC-38" target="p7GBY2X_nWyyRQyz9_gC-33">
          <mxGeometry relative="1" as="geometry" />
        </mxCell>
        <mxCell id="p7GBY2X_nWyyRQyz9_gC-47" style="edgeStyle=orthogonalEdgeStyle;rounded=0;orthogonalLoop=1;jettySize=auto;html=1;exitX=0.5;exitY=1;exitDx=0;exitDy=0;entryX=0.5;entryY=0;entryDx=0;entryDy=0;fillColor=#1ba1e2;strokeColor=#006EAF;" edge="1" parent="1" source="p7GBY2X_nWyyRQyz9_gC-38" target="p7GBY2X_nWyyRQyz9_gC-13">
          <mxGeometry relative="1" as="geometry" />
        </mxCell>
        <mxCell id="p7GBY2X_nWyyRQyz9_gC-38" value="GameList" style="swimlane;fontStyle=0;childLayout=stackLayout;horizontal=1;startSize=26;fillColor=#f8cecc;horizontalStack=0;resizeParent=1;resizeParentMax=0;resizeLast=0;collapsible=1;marginBottom=0;whiteSpace=wrap;html=1;strokeColor=#b85450;" vertex="1" collapsed="1" parent="1">
          <mxGeometry x="990" y="80" width="90" height="30" as="geometry">
            <mxRectangle x="510" y="920" width="140" height="52" as="alternateBounds" />
          </mxGeometry>
        </mxCell>
        <mxCell id="p7GBY2X_nWyyRQyz9_gC-39" value="+ field: type" style="text;strokeColor=none;fillColor=none;align=left;verticalAlign=top;spacingLeft=4;spacingRight=4;overflow=hidden;rotatable=0;points=[[0,0.5],[1,0.5]];portConstraint=eastwest;whiteSpace=wrap;html=1;" vertex="1" parent="p7GBY2X_nWyyRQyz9_gC-38">
          <mxGeometry y="26" width="140" height="26" as="geometry" />
        </mxCell>
        <mxCell id="p7GBY2X_nWyyRQyz9_gC-50" style="edgeStyle=orthogonalEdgeStyle;rounded=0;orthogonalLoop=1;jettySize=auto;html=1;exitX=0.5;exitY=1;exitDx=0;exitDy=0;entryX=0.5;entryY=0;entryDx=0;entryDy=0;fillColor=#f8cecc;strokeColor=#b85450;" edge="1" parent="1" source="p7GBY2X_nWyyRQyz9_gC-48" target="p7GBY2X_nWyyRQyz9_gC-33">
          <mxGeometry relative="1" as="geometry">
            <Array as="points">
              <mxPoint x="1130" y="-110" />
              <mxPoint x="1035" y="-110" />
            </Array>
          </mxGeometry>
        </mxCell>
        <mxCell id="p7GBY2X_nWyyRQyz9_gC-51" style="edgeStyle=orthogonalEdgeStyle;rounded=0;orthogonalLoop=1;jettySize=auto;html=1;exitX=0.5;exitY=1;exitDx=0;exitDy=0;entryX=0;entryY=0.5;entryDx=0;entryDy=0;fillColor=#f0a30a;strokeColor=#BD7000;" edge="1" parent="1" source="p7GBY2X_nWyyRQyz9_gC-48" target="p7GBY2X_nWyyRQyz9_gC-22">
          <mxGeometry relative="1" as="geometry">
            <mxPoint x="1300" y="-110" as="targetPoint" />
            <Array as="points">
              <mxPoint x="1130" y="-80" />
              <mxPoint x="1290" y="-80" />
              <mxPoint x="1290" y="-110" />
            </Array>
          </mxGeometry>
        </mxCell>
        <mxCell id="p7GBY2X_nWyyRQyz9_gC-52" style="edgeStyle=orthogonalEdgeStyle;rounded=0;orthogonalLoop=1;jettySize=auto;html=1;exitX=0.5;exitY=1;exitDx=0;exitDy=0;entryX=0;entryY=0.5;entryDx=0;entryDy=0;fillColor=#fa6800;strokeColor=#C73500;" edge="1" parent="1" source="p7GBY2X_nWyyRQyz9_gC-48" target="p7GBY2X_nWyyRQyz9_gC-25">
          <mxGeometry relative="1" as="geometry">
            <Array as="points">
              <mxPoint x="1130" y="-80" />
              <mxPoint x="1220" y="-80" />
              <mxPoint x="1220" y="-15" />
            </Array>
          </mxGeometry>
        </mxCell>
        <mxCell id="p7GBY2X_nWyyRQyz9_gC-48" value="Multiplayer" style="swimlane;fontStyle=0;childLayout=stackLayout;horizontal=1;startSize=26;fillColor=#a20025;horizontalStack=0;resizeParent=1;resizeParentMax=0;resizeLast=0;collapsible=1;marginBottom=0;whiteSpace=wrap;html=1;fontColor=#ffffff;strokeColor=#6F0000;" vertex="1" collapsed="1" parent="1">
          <mxGeometry x="1080" y="-319" width="100" height="30" as="geometry">
            <mxRectangle x="710" y="700" width="140" height="52" as="alternateBounds" />
          </mxGeometry>
        </mxCell>
        <mxCell id="p7GBY2X_nWyyRQyz9_gC-49" value="+ field: type" style="text;strokeColor=none;fillColor=none;align=left;verticalAlign=top;spacingLeft=4;spacingRight=4;overflow=hidden;rotatable=0;points=[[0,0.5],[1,0.5]];portConstraint=eastwest;whiteSpace=wrap;html=1;" vertex="1" parent="p7GBY2X_nWyyRQyz9_gC-48">
          <mxGeometry y="26" width="140" height="26" as="geometry" />
        </mxCell>
        <mxCell id="p7GBY2X_nWyyRQyz9_gC-55" style="edgeStyle=orthogonalEdgeStyle;rounded=0;orthogonalLoop=1;jettySize=auto;html=1;exitX=0.5;exitY=1;exitDx=0;exitDy=0;entryX=0.5;entryY=0;entryDx=0;entryDy=0;fillColor=#f8cecc;strokeColor=#b85450;" edge="1" parent="1" source="p7GBY2X_nWyyRQyz9_gC-53" target="p7GBY2X_nWyyRQyz9_gC-33">
          <mxGeometry relative="1" as="geometry">
            <Array as="points">
              <mxPoint x="965" y="-110" />
              <mxPoint x="1035" y="-110" />
            </Array>
          </mxGeometry>
        </mxCell>
        <mxCell id="p7GBY2X_nWyyRQyz9_gC-56" style="edgeStyle=orthogonalEdgeStyle;rounded=0;orthogonalLoop=1;jettySize=auto;html=1;exitX=0.5;exitY=1;exitDx=0;exitDy=0;entryX=0;entryY=0.5;entryDx=0;entryDy=0;fillColor=#f0a30a;strokeColor=#BD7000;" edge="1" parent="1" source="p7GBY2X_nWyyRQyz9_gC-53" target="p7GBY2X_nWyyRQyz9_gC-22">
          <mxGeometry relative="1" as="geometry">
            <mxPoint x="1340" y="-110" as="targetPoint" />
            <Array as="points">
              <mxPoint x="965" y="-80" />
              <mxPoint x="1290" y="-80" />
              <mxPoint x="1290" y="-110" />
            </Array>
          </mxGeometry>
        </mxCell>
        <mxCell id="p7GBY2X_nWyyRQyz9_gC-57" style="edgeStyle=orthogonalEdgeStyle;rounded=0;orthogonalLoop=1;jettySize=auto;html=1;exitX=0.5;exitY=1;exitDx=0;exitDy=0;entryX=0;entryY=0.5;entryDx=0;entryDy=0;fillColor=#fa6800;strokeColor=#C73500;" edge="1" parent="1" source="p7GBY2X_nWyyRQyz9_gC-53" target="p7GBY2X_nWyyRQyz9_gC-25">
          <mxGeometry relative="1" as="geometry">
            <Array as="points">
              <mxPoint x="965" y="-80" />
              <mxPoint x="1220" y="-80" />
              <mxPoint x="1220" y="-15" />
            </Array>
          </mxGeometry>
        </mxCell>
        <mxCell id="p7GBY2X_nWyyRQyz9_gC-53" value="Singleplayer" style="swimlane;fontStyle=0;childLayout=stackLayout;horizontal=1;startSize=26;fillColor=#6a00ff;horizontalStack=0;resizeParent=1;resizeParentMax=0;resizeLast=0;collapsible=1;marginBottom=0;whiteSpace=wrap;html=1;fontColor=#ffffff;strokeColor=#3700CC;" vertex="1" collapsed="1" parent="1">
          <mxGeometry x="910" y="-319" width="110" height="30" as="geometry">
            <mxRectangle x="520" y="31" width="140" height="52" as="alternateBounds" />
          </mxGeometry>
        </mxCell>
        <mxCell id="p7GBY2X_nWyyRQyz9_gC-54" value="+ field: type" style="text;strokeColor=none;fillColor=none;align=left;verticalAlign=top;spacingLeft=4;spacingRight=4;overflow=hidden;rotatable=0;points=[[0,0.5],[1,0.5]];portConstraint=eastwest;whiteSpace=wrap;html=1;" vertex="1" parent="p7GBY2X_nWyyRQyz9_gC-53">
          <mxGeometry y="26" width="140" height="26" as="geometry" />
        </mxCell>
        <mxCell id="p7GBY2X_nWyyRQyz9_gC-61" style="edgeStyle=orthogonalEdgeStyle;rounded=0;orthogonalLoop=1;jettySize=auto;html=1;exitX=0.5;exitY=1;exitDx=0;exitDy=0;entryX=0.5;entryY=0;entryDx=0;entryDy=0;fillColor=#d80073;strokeColor=#A50040;" edge="1" parent="1" source="p7GBY2X_nWyyRQyz9_gC-59" target="p7GBY2X_nWyyRQyz9_gC-48">
          <mxGeometry relative="1" as="geometry" />
        </mxCell>
        <mxCell id="p7GBY2X_nWyyRQyz9_gC-62" style="edgeStyle=orthogonalEdgeStyle;rounded=0;orthogonalLoop=1;jettySize=auto;html=1;exitX=0.5;exitY=1;exitDx=0;exitDy=0;entryX=0.5;entryY=0;entryDx=0;entryDy=0;fillColor=#6a00ff;strokeColor=#3700CC;" edge="1" parent="1" source="p7GBY2X_nWyyRQyz9_gC-59" target="p7GBY2X_nWyyRQyz9_gC-53">
          <mxGeometry relative="1" as="geometry" />
        </mxCell>
        <mxCell id="p7GBY2X_nWyyRQyz9_gC-63" style="edgeStyle=orthogonalEdgeStyle;rounded=0;orthogonalLoop=1;jettySize=auto;html=1;exitX=0.5;exitY=1;exitDx=0;exitDy=0;entryX=0.5;entryY=0;entryDx=0;entryDy=0;fillColor=#1ba1e2;strokeColor=#006EAF;" edge="1" parent="1" source="p7GBY2X_nWyyRQyz9_gC-59" target="p7GBY2X_nWyyRQyz9_gC-13">
          <mxGeometry relative="1" as="geometry" />
        </mxCell>
        <mxCell id="p7GBY2X_nWyyRQyz9_gC-64" style="edgeStyle=orthogonalEdgeStyle;rounded=0;orthogonalLoop=1;jettySize=auto;html=1;exitX=0.5;exitY=1;exitDx=0;exitDy=0;entryX=0;entryY=0.5;entryDx=0;entryDy=0;fillColor=#fa6800;strokeColor=#C73500;" edge="1" parent="1" source="p7GBY2X_nWyyRQyz9_gC-59" target="p7GBY2X_nWyyRQyz9_gC-25">
          <mxGeometry relative="1" as="geometry">
            <mxPoint x="1290" y="-30" as="targetPoint" />
            <Array as="points">
              <mxPoint x="755" y="-350" />
              <mxPoint x="1220" y="-350" />
              <mxPoint x="1220" y="-15" />
            </Array>
          </mxGeometry>
        </mxCell>
        <mxCell id="p7GBY2X_nWyyRQyz9_gC-65" style="edgeStyle=orthogonalEdgeStyle;rounded=0;orthogonalLoop=1;jettySize=auto;html=1;exitX=0.5;exitY=1;exitDx=0;exitDy=0;entryX=0;entryY=0.5;entryDx=0;entryDy=0;fillColor=#f0a30a;strokeColor=#BD7000;" edge="1" parent="1" source="p7GBY2X_nWyyRQyz9_gC-59" target="p7GBY2X_nWyyRQyz9_gC-22">
          <mxGeometry relative="1" as="geometry">
            <mxPoint x="1291" y="-120" as="targetPoint" />
            <Array as="points">
              <mxPoint x="755" y="-350" />
              <mxPoint x="1291" y="-350" />
              <mxPoint x="1291" y="-110" />
            </Array>
          </mxGeometry>
        </mxCell>
        <mxCell id="p7GBY2X_nWyyRQyz9_gC-68" style="edgeStyle=orthogonalEdgeStyle;rounded=0;orthogonalLoop=1;jettySize=auto;html=1;exitX=0.5;exitY=1;exitDx=0;exitDy=0;entryX=0.5;entryY=0;entryDx=0;entryDy=0;fillColor=#e1d5e7;strokeColor=#9673a6;" edge="1" parent="1" source="p7GBY2X_nWyyRQyz9_gC-59" target="p7GBY2X_nWyyRQyz9_gC-66">
          <mxGeometry relative="1" as="geometry">
            <Array as="points">
              <mxPoint x="755" y="-250" />
              <mxPoint x="490" y="-250" />
            </Array>
          </mxGeometry>
        </mxCell>
        <mxCell id="p7GBY2X_nWyyRQyz9_gC-59" value="Playground" style="swimlane;fontStyle=0;childLayout=stackLayout;horizontal=1;startSize=26;fillColor=#ffe6cc;horizontalStack=0;resizeParent=1;resizeParentMax=0;resizeLast=0;collapsible=1;marginBottom=0;whiteSpace=wrap;html=1;strokeColor=#d79b00;" vertex="1" collapsed="1" parent="1">
          <mxGeometry x="705" y="-410" width="100" height="30" as="geometry">
            <mxRectangle x="480" y="420" width="140" height="52" as="alternateBounds" />
          </mxGeometry>
        </mxCell>
        <mxCell id="p7GBY2X_nWyyRQyz9_gC-60" value="+ field: type" style="text;strokeColor=none;fillColor=none;align=left;verticalAlign=top;spacingLeft=4;spacingRight=4;overflow=hidden;rotatable=0;points=[[0,0.5],[1,0.5]];portConstraint=eastwest;whiteSpace=wrap;html=1;" vertex="1" parent="p7GBY2X_nWyyRQyz9_gC-59">
          <mxGeometry y="26" width="140" height="26" as="geometry" />
        </mxCell>
        <mxCell id="p7GBY2X_nWyyRQyz9_gC-66" value="GuiBuilder" style="swimlane;fontStyle=0;childLayout=stackLayout;horizontal=1;startSize=26;fillColor=#e1d5e7;horizontalStack=0;resizeParent=1;resizeParentMax=0;resizeLast=0;collapsible=1;marginBottom=0;whiteSpace=wrap;html=1;strokeColor=#9673a6;" vertex="1" collapsed="1" parent="1">
          <mxGeometry x="440" y="-220" width="100" height="30" as="geometry">
            <mxRectangle x="490" y="430" width="140" height="52" as="alternateBounds" />
          </mxGeometry>
        </mxCell>
        <mxCell id="p7GBY2X_nWyyRQyz9_gC-67" value="+ field: type" style="text;strokeColor=none;fillColor=none;align=left;verticalAlign=top;spacingLeft=4;spacingRight=4;overflow=hidden;rotatable=0;points=[[0,0.5],[1,0.5]];portConstraint=eastwest;whiteSpace=wrap;html=1;" vertex="1" parent="p7GBY2X_nWyyRQyz9_gC-66">
          <mxGeometry y="26" width="140" height="26" as="geometry" />
        </mxCell>
        <mxCell id="p7GBY2X_nWyyRQyz9_gC-71" style="edgeStyle=orthogonalEdgeStyle;rounded=0;orthogonalLoop=1;jettySize=auto;html=1;exitX=0.5;exitY=0;exitDx=0;exitDy=0;entryX=0.75;entryY=1;entryDx=0;entryDy=0;endArrow=block;endFill=0;fillColor=#f8cecc;strokeColor=#b85450;" edge="1" parent="1" source="p7GBY2X_nWyyRQyz9_gC-69" target="p7GBY2X_nWyyRQyz9_gC-33">
          <mxGeometry relative="1" as="geometry">
            <Array as="points">
              <mxPoint x="1190" y="50" />
              <mxPoint x="1053" y="50" />
            </Array>
          </mxGeometry>
        </mxCell>
        <mxCell id="p7GBY2X_nWyyRQyz9_gC-72" style="edgeStyle=orthogonalEdgeStyle;rounded=0;orthogonalLoop=1;jettySize=auto;html=1;exitX=0;exitY=0.5;exitDx=0;exitDy=0;entryX=0.5;entryY=1;entryDx=0;entryDy=0;fillColor=#e1d5e7;strokeColor=#9673a6;" edge="1" parent="1" source="p7GBY2X_nWyyRQyz9_gC-69" target="p7GBY2X_nWyyRQyz9_gC-66">
          <mxGeometry relative="1" as="geometry" />
        </mxCell>
        <mxCell id="p7GBY2X_nWyyRQyz9_gC-169" style="edgeStyle=orthogonalEdgeStyle;rounded=0;orthogonalLoop=1;jettySize=auto;html=1;exitX=0.5;exitY=1;exitDx=0;exitDy=0;entryX=0.5;entryY=0;entryDx=0;entryDy=0;" edge="1" parent="1" source="p7GBY2X_nWyyRQyz9_gC-69" target="p7GBY2X_nWyyRQyz9_gC-73">
          <mxGeometry relative="1" as="geometry" />
        </mxCell>
        <mxCell id="p7GBY2X_nWyyRQyz9_gC-69" value="TicTacToe" style="swimlane;fontStyle=0;childLayout=stackLayout;horizontal=1;startSize=26;fillColor=#eeeeee;horizontalStack=0;resizeParent=1;resizeParentMax=0;resizeLast=0;collapsible=1;marginBottom=0;whiteSpace=wrap;html=1;strokeColor=#36393d;" vertex="1" collapsed="1" parent="1">
          <mxGeometry x="1130" y="230" width="100" height="30" as="geometry">
            <mxRectangle x="840" y="850" width="140" height="52" as="alternateBounds" />
          </mxGeometry>
        </mxCell>
        <mxCell id="p7GBY2X_nWyyRQyz9_gC-70" value="+ field: type" style="text;strokeColor=none;fillColor=none;align=left;verticalAlign=top;spacingLeft=4;spacingRight=4;overflow=hidden;rotatable=0;points=[[0,0.5],[1,0.5]];portConstraint=eastwest;whiteSpace=wrap;html=1;" vertex="1" parent="p7GBY2X_nWyyRQyz9_gC-69">
          <mxGeometry y="26" width="140" height="26" as="geometry" />
        </mxCell>
        <mxCell id="p7GBY2X_nWyyRQyz9_gC-73" value="ChooseGraphicTTT" style="swimlane;fontStyle=0;childLayout=stackLayout;horizontal=1;startSize=26;fillColor=none;horizontalStack=0;resizeParent=1;resizeParentMax=0;resizeLast=0;collapsible=1;marginBottom=0;whiteSpace=wrap;html=1;" vertex="1" collapsed="1" parent="1">
          <mxGeometry x="1105" y="300" width="150" height="30" as="geometry">
            <mxRectangle x="827" y="1050" width="140" height="52" as="alternateBounds" />
          </mxGeometry>
        </mxCell>
        <mxCell id="p7GBY2X_nWyyRQyz9_gC-74" value="+ field: type" style="text;strokeColor=none;fillColor=none;align=left;verticalAlign=top;spacingLeft=4;spacingRight=4;overflow=hidden;rotatable=0;points=[[0,0.5],[1,0.5]];portConstraint=eastwest;whiteSpace=wrap;html=1;" vertex="1" parent="p7GBY2X_nWyyRQyz9_gC-73">
          <mxGeometry y="26" width="140" height="26" as="geometry" />
        </mxCell>
        <mxCell id="p7GBY2X_nWyyRQyz9_gC-78" style="edgeStyle=orthogonalEdgeStyle;rounded=0;orthogonalLoop=1;jettySize=auto;html=1;exitX=0.5;exitY=0;exitDx=0;exitDy=0;endArrow=block;endFill=0;entryX=0.75;entryY=1;entryDx=0;entryDy=0;fillColor=#f8cecc;strokeColor=#b85450;" edge="1" parent="1" source="p7GBY2X_nWyyRQyz9_gC-76" target="p7GBY2X_nWyyRQyz9_gC-33">
          <mxGeometry relative="1" as="geometry">
            <mxPoint x="1050" y="40" as="targetPoint" />
            <Array as="points">
              <mxPoint x="1360" y="220" />
              <mxPoint x="1190" y="220" />
              <mxPoint x="1190" y="50" />
              <mxPoint x="1053" y="50" />
            </Array>
          </mxGeometry>
        </mxCell>
        <mxCell id="p7GBY2X_nWyyRQyz9_gC-82" style="edgeStyle=orthogonalEdgeStyle;rounded=0;orthogonalLoop=1;jettySize=auto;html=1;exitX=0.5;exitY=0;exitDx=0;exitDy=0;entryX=0.5;entryY=1;entryDx=0;entryDy=0;fillColor=#e1d5e7;strokeColor=#9673a6;" edge="1" parent="1" source="p7GBY2X_nWyyRQyz9_gC-76" target="p7GBY2X_nWyyRQyz9_gC-66">
          <mxGeometry relative="1" as="geometry">
            <mxPoint x="478.0952380952381" y="370" as="targetPoint" />
            <Array as="points">
              <mxPoint x="1370" y="230" />
              <mxPoint x="1370" y="210" />
              <mxPoint x="1070" y="210" />
              <mxPoint x="1070" y="245" />
              <mxPoint x="490" y="245" />
            </Array>
          </mxGeometry>
        </mxCell>
        <mxCell id="p7GBY2X_nWyyRQyz9_gC-170" style="edgeStyle=orthogonalEdgeStyle;rounded=0;orthogonalLoop=1;jettySize=auto;html=1;exitX=0.5;exitY=1;exitDx=0;exitDy=0;entryX=0.5;entryY=0;entryDx=0;entryDy=0;" edge="1" parent="1" source="p7GBY2X_nWyyRQyz9_gC-76" target="p7GBY2X_nWyyRQyz9_gC-79">
          <mxGeometry relative="1" as="geometry" />
        </mxCell>
        <mxCell id="p7GBY2X_nWyyRQyz9_gC-76" value="SpaceInvaders" style="swimlane;fontStyle=0;childLayout=stackLayout;horizontal=1;startSize=26;fillColor=#eeeeee;horizontalStack=0;resizeParent=1;resizeParentMax=0;resizeLast=0;collapsible=1;marginBottom=0;whiteSpace=wrap;html=1;strokeColor=#36393d;" vertex="1" collapsed="1" parent="1">
          <mxGeometry x="1300" y="230" width="120" height="30" as="geometry">
            <mxRectangle x="1010" y="980" width="140" height="52" as="alternateBounds" />
          </mxGeometry>
        </mxCell>
        <mxCell id="p7GBY2X_nWyyRQyz9_gC-77" value="+ field: type" style="text;strokeColor=none;fillColor=none;align=left;verticalAlign=top;spacingLeft=4;spacingRight=4;overflow=hidden;rotatable=0;points=[[0,0.5],[1,0.5]];portConstraint=eastwest;whiteSpace=wrap;html=1;" vertex="1" parent="p7GBY2X_nWyyRQyz9_gC-76">
          <mxGeometry y="26" width="140" height="26" as="geometry" />
        </mxCell>
        <mxCell id="p7GBY2X_nWyyRQyz9_gC-79" value="ChooseGraphicSI" style="swimlane;fontStyle=0;childLayout=stackLayout;horizontal=1;startSize=26;fillColor=none;horizontalStack=0;resizeParent=1;resizeParentMax=0;resizeLast=0;collapsible=1;marginBottom=0;whiteSpace=wrap;html=1;" vertex="1" collapsed="1" parent="1">
          <mxGeometry x="1290" y="300" width="140" height="30" as="geometry">
            <mxRectangle x="1000" y="1050" width="140" height="52" as="alternateBounds" />
          </mxGeometry>
        </mxCell>
        <mxCell id="p7GBY2X_nWyyRQyz9_gC-80" value="+ field: type" style="text;strokeColor=none;fillColor=none;align=left;verticalAlign=top;spacingLeft=4;spacingRight=4;overflow=hidden;rotatable=0;points=[[0,0.5],[1,0.5]];portConstraint=eastwest;whiteSpace=wrap;html=1;" vertex="1" parent="p7GBY2X_nWyyRQyz9_gC-79">
          <mxGeometry y="26" width="140" height="26" as="geometry" />
        </mxCell>
        <mxCell id="p7GBY2X_nWyyRQyz9_gC-96" style="edgeStyle=orthogonalEdgeStyle;rounded=0;orthogonalLoop=1;jettySize=auto;html=1;exitX=0.5;exitY=1;exitDx=0;exitDy=0;entryX=0.5;entryY=0;entryDx=0;entryDy=0;fillColor=#e1d5e7;strokeColor=#9673a6;" edge="1" parent="1" source="p7GBY2X_nWyyRQyz9_gC-83" target="p7GBY2X_nWyyRQyz9_gC-66">
          <mxGeometry relative="1" as="geometry">
            <Array as="points">
              <mxPoint x="910" y="-540" />
              <mxPoint x="490" y="-540" />
            </Array>
          </mxGeometry>
        </mxCell>
        <mxCell id="p7GBY2X_nWyyRQyz9_gC-97" style="edgeStyle=orthogonalEdgeStyle;rounded=0;orthogonalLoop=1;jettySize=auto;html=1;exitX=0.5;exitY=0;exitDx=0;exitDy=0;entryX=0.5;entryY=1;entryDx=0;entryDy=0;endArrow=block;endFill=0;" edge="1" parent="1" source="p7GBY2X_nWyyRQyz9_gC-83" target="p7GBY2X_nWyyRQyz9_gC-88">
          <mxGeometry relative="1" as="geometry" />
        </mxCell>
        <mxCell id="p7GBY2X_nWyyRQyz9_gC-98" style="edgeStyle=orthogonalEdgeStyle;rounded=0;orthogonalLoop=1;jettySize=auto;html=1;exitX=0.5;exitY=0;exitDx=0;exitDy=0;entryX=0.5;entryY=1;entryDx=0;entryDy=0;" edge="1" parent="1" source="p7GBY2X_nWyyRQyz9_gC-83" target="p7GBY2X_nWyyRQyz9_gC-94">
          <mxGeometry relative="1" as="geometry">
            <Array as="points">
              <mxPoint x="910" y="-710" />
              <mxPoint x="800" y="-710" />
            </Array>
          </mxGeometry>
        </mxCell>
        <mxCell id="p7GBY2X_nWyyRQyz9_gC-99" style="edgeStyle=orthogonalEdgeStyle;rounded=0;orthogonalLoop=1;jettySize=auto;html=1;exitX=0.5;exitY=0;exitDx=0;exitDy=0;entryX=0.5;entryY=1;entryDx=0;entryDy=0;fillColor=#b0e3e6;strokeColor=#0e8088;" edge="1" parent="1" source="p7GBY2X_nWyyRQyz9_gC-83" target="p7GBY2X_nWyyRQyz9_gC-86">
          <mxGeometry relative="1" as="geometry">
            <Array as="points">
              <mxPoint x="910" y="-710" />
              <mxPoint x="975" y="-710" />
            </Array>
          </mxGeometry>
        </mxCell>
        <mxCell id="p7GBY2X_nWyyRQyz9_gC-100" style="edgeStyle=orthogonalEdgeStyle;rounded=0;orthogonalLoop=1;jettySize=auto;html=1;exitX=0.5;exitY=0;exitDx=0;exitDy=0;entryX=0.5;entryY=1;entryDx=0;entryDy=0;fillColor=#d0cee2;strokeColor=#56517e;" edge="1" parent="1" source="p7GBY2X_nWyyRQyz9_gC-83" target="p7GBY2X_nWyyRQyz9_gC-90">
          <mxGeometry relative="1" as="geometry">
            <Array as="points">
              <mxPoint x="910" y="-710" />
              <mxPoint x="1255" y="-710" />
            </Array>
          </mxGeometry>
        </mxCell>
        <mxCell id="p7GBY2X_nWyyRQyz9_gC-101" style="edgeStyle=orthogonalEdgeStyle;rounded=0;orthogonalLoop=1;jettySize=auto;html=1;exitX=0.5;exitY=0;exitDx=0;exitDy=0;entryX=0.5;entryY=1;entryDx=0;entryDy=0;fillColor=#bac8d3;strokeColor=#23445d;" edge="1" parent="1" source="p7GBY2X_nWyyRQyz9_gC-83" target="p7GBY2X_nWyyRQyz9_gC-92">
          <mxGeometry relative="1" as="geometry">
            <Array as="points">
              <mxPoint x="910" y="-710" />
              <mxPoint x="1385" y="-710" />
            </Array>
          </mxGeometry>
        </mxCell>
        <mxCell id="p7GBY2X_nWyyRQyz9_gC-102" style="edgeStyle=orthogonalEdgeStyle;rounded=0;orthogonalLoop=1;jettySize=auto;html=1;exitX=0.5;exitY=1;exitDx=0;exitDy=0;entryX=0;entryY=0.5;entryDx=0;entryDy=0;fillColor=#f0a30a;strokeColor=#BD7000;" edge="1" parent="1" source="p7GBY2X_nWyyRQyz9_gC-83" target="p7GBY2X_nWyyRQyz9_gC-22">
          <mxGeometry relative="1" as="geometry">
            <mxPoint x="1287.8947368421054" y="-470" as="targetPoint" />
            <Array as="points">
              <mxPoint x="910" y="-540" />
              <mxPoint x="1290" y="-540" />
              <mxPoint x="1290" y="-110" />
            </Array>
          </mxGeometry>
        </mxCell>
        <mxCell id="p7GBY2X_nWyyRQyz9_gC-103" style="edgeStyle=orthogonalEdgeStyle;rounded=0;orthogonalLoop=1;jettySize=auto;html=1;exitX=0.5;exitY=1;exitDx=0;exitDy=0;entryX=0;entryY=0.5;entryDx=0;entryDy=0;fillColor=#fa6800;strokeColor=#C73500;" edge="1" parent="1" source="p7GBY2X_nWyyRQyz9_gC-83" target="p7GBY2X_nWyyRQyz9_gC-25">
          <mxGeometry relative="1" as="geometry">
            <mxPoint x="1330" y="-30" as="targetPoint" />
            <Array as="points">
              <mxPoint x="910" y="-540" />
              <mxPoint x="1220" y="-540" />
              <mxPoint x="1220" y="-15" />
            </Array>
          </mxGeometry>
        </mxCell>
        <mxCell id="p7GBY2X_nWyyRQyz9_gC-83" value="MenuManager" style="swimlane;fontStyle=0;childLayout=stackLayout;horizontal=1;startSize=26;fillColor=#fff2cc;horizontalStack=0;resizeParent=1;resizeParentMax=0;resizeLast=0;collapsible=1;marginBottom=0;whiteSpace=wrap;html=1;strokeColor=#d6b656;" vertex="1" collapsed="1" parent="1">
          <mxGeometry x="850" y="-620" width="120" height="30" as="geometry">
            <mxRectangle x="540" y="-30" width="140" height="52" as="alternateBounds" />
          </mxGeometry>
        </mxCell>
        <mxCell id="p7GBY2X_nWyyRQyz9_gC-84" value="+ field: type" style="text;strokeColor=none;fillColor=none;align=left;verticalAlign=top;spacingLeft=4;spacingRight=4;overflow=hidden;rotatable=0;points=[[0,0.5],[1,0.5]];portConstraint=eastwest;whiteSpace=wrap;html=1;" vertex="1" parent="p7GBY2X_nWyyRQyz9_gC-83">
          <mxGeometry y="26" width="140" height="26" as="geometry" />
        </mxCell>
        <mxCell id="p7GBY2X_nWyyRQyz9_gC-86" value="GenericMenu" style="swimlane;fontStyle=0;childLayout=stackLayout;horizontal=1;startSize=26;fillColor=#b0e3e6;horizontalStack=0;resizeParent=1;resizeParentMax=0;resizeLast=0;collapsible=1;marginBottom=0;whiteSpace=wrap;html=1;strokeColor=#0e8088;" vertex="1" collapsed="1" parent="1">
          <mxGeometry x="920" y="-810" width="110" height="30" as="geometry">
            <mxRectangle x="620" y="-190" width="140" height="52" as="alternateBounds" />
          </mxGeometry>
        </mxCell>
        <mxCell id="p7GBY2X_nWyyRQyz9_gC-87" value="+ field: type" style="text;strokeColor=none;fillColor=none;align=left;verticalAlign=top;spacingLeft=4;spacingRight=4;overflow=hidden;rotatable=0;points=[[0,0.5],[1,0.5]];portConstraint=eastwest;whiteSpace=wrap;html=1;" vertex="1" parent="p7GBY2X_nWyyRQyz9_gC-86">
          <mxGeometry y="26" width="140" height="26" as="geometry" />
        </mxCell>
        <mxCell id="p7GBY2X_nWyyRQyz9_gC-88" value="Manager" style="swimlane;fontStyle=0;childLayout=stackLayout;horizontal=1;startSize=26;fillColor=none;horizontalStack=0;resizeParent=1;resizeParentMax=0;resizeLast=0;collapsible=1;marginBottom=0;whiteSpace=wrap;html=1;" vertex="1" collapsed="1" parent="1">
          <mxGeometry x="705" y="-700" width="90" height="30" as="geometry">
            <mxRectangle x="440" y="-190" width="140" height="52" as="alternateBounds" />
          </mxGeometry>
        </mxCell>
        <mxCell id="p7GBY2X_nWyyRQyz9_gC-89" value="+ field: type" style="text;strokeColor=none;fillColor=none;align=left;verticalAlign=top;spacingLeft=4;spacingRight=4;overflow=hidden;rotatable=0;points=[[0,0.5],[1,0.5]];portConstraint=eastwest;whiteSpace=wrap;html=1;" vertex="1" parent="p7GBY2X_nWyyRQyz9_gC-88">
          <mxGeometry y="26" width="140" height="26" as="geometry" />
        </mxCell>
        <mxCell id="p7GBY2X_nWyyRQyz9_gC-90" value="ManageMenu" style="swimlane;fontStyle=0;childLayout=stackLayout;horizontal=1;startSize=26;fillColor=#d0cee2;horizontalStack=0;resizeParent=1;resizeParentMax=0;resizeLast=0;collapsible=1;marginBottom=0;whiteSpace=wrap;html=1;strokeColor=#56517e;" vertex="1" collapsed="1" parent="1">
          <mxGeometry x="1200" y="-810" width="110" height="30" as="geometry">
            <mxRectangle x="770" y="-190" width="140" height="52" as="alternateBounds" />
          </mxGeometry>
        </mxCell>
        <mxCell id="p7GBY2X_nWyyRQyz9_gC-91" value="+ field: type" style="text;strokeColor=none;fillColor=none;align=left;verticalAlign=top;spacingLeft=4;spacingRight=4;overflow=hidden;rotatable=0;points=[[0,0.5],[1,0.5]];portConstraint=eastwest;whiteSpace=wrap;html=1;" vertex="1" parent="p7GBY2X_nWyyRQyz9_gC-90">
          <mxGeometry y="26" width="140" height="26" as="geometry" />
        </mxCell>
        <mxCell id="p7GBY2X_nWyyRQyz9_gC-92" value="EditMenu" style="swimlane;fontStyle=0;childLayout=stackLayout;horizontal=1;startSize=26;fillColor=#bac8d3;horizontalStack=0;resizeParent=1;resizeParentMax=0;resizeLast=0;collapsible=1;marginBottom=0;whiteSpace=wrap;html=1;strokeColor=#23445d;" vertex="1" collapsed="1" parent="1">
          <mxGeometry x="1340" y="-810" width="90" height="30" as="geometry">
            <mxRectangle x="910" y="-190" width="140" height="52" as="alternateBounds" />
          </mxGeometry>
        </mxCell>
        <mxCell id="p7GBY2X_nWyyRQyz9_gC-93" value="+ field: type" style="text;strokeColor=none;fillColor=none;align=left;verticalAlign=top;spacingLeft=4;spacingRight=4;overflow=hidden;rotatable=0;points=[[0,0.5],[1,0.5]];portConstraint=eastwest;whiteSpace=wrap;html=1;" vertex="1" parent="p7GBY2X_nWyyRQyz9_gC-92">
          <mxGeometry y="26" width="140" height="26" as="geometry" />
        </mxCell>
        <mxCell id="p7GBY2X_nWyyRQyz9_gC-94" value="Window" style="swimlane;fontStyle=0;childLayout=stackLayout;horizontal=1;startSize=26;fillColor=none;horizontalStack=0;resizeParent=1;resizeParentMax=0;resizeLast=0;collapsible=1;marginBottom=0;whiteSpace=wrap;html=1;" vertex="1" collapsed="1" parent="1">
          <mxGeometry x="760" y="-770" width="80" height="30" as="geometry">
            <mxRectangle x="300" y="-101" width="140" height="52" as="alternateBounds" />
          </mxGeometry>
        </mxCell>
        <mxCell id="p7GBY2X_nWyyRQyz9_gC-95" value="+ field: type" style="text;strokeColor=none;fillColor=none;align=left;verticalAlign=top;spacingLeft=4;spacingRight=4;overflow=hidden;rotatable=0;points=[[0,0.5],[1,0.5]];portConstraint=eastwest;whiteSpace=wrap;html=1;" vertex="1" parent="p7GBY2X_nWyyRQyz9_gC-94">
          <mxGeometry y="26" width="140" height="26" as="geometry" />
        </mxCell>
        <mxCell id="p7GBY2X_nWyyRQyz9_gC-104" value="MenuActions" style="swimlane;fontStyle=0;childLayout=stackLayout;horizontal=1;startSize=26;fillColor=#fad9d5;horizontalStack=0;resizeParent=1;resizeParentMax=0;resizeLast=0;collapsible=1;marginBottom=0;whiteSpace=wrap;html=1;strokeColor=#ae4132;" vertex="1" collapsed="1" parent="1">
          <mxGeometry x="600" y="-890" width="110" height="30" as="geometry">
            <mxRectangle x="320" y="-270" width="140" height="52" as="alternateBounds" />
          </mxGeometry>
        </mxCell>
        <mxCell id="p7GBY2X_nWyyRQyz9_gC-105" value="+ field: type" style="text;strokeColor=none;fillColor=none;align=left;verticalAlign=top;spacingLeft=4;spacingRight=4;overflow=hidden;rotatable=0;points=[[0,0.5],[1,0.5]];portConstraint=eastwest;whiteSpace=wrap;html=1;" vertex="1" parent="p7GBY2X_nWyyRQyz9_gC-104">
          <mxGeometry y="26" width="140" height="26" as="geometry" />
        </mxCell>
        <mxCell id="p7GBY2X_nWyyRQyz9_gC-110" style="edgeStyle=orthogonalEdgeStyle;rounded=0;orthogonalLoop=1;jettySize=auto;html=1;exitX=0.5;exitY=0;exitDx=0;exitDy=0;entryX=0.5;entryY=1;entryDx=0;entryDy=0;" edge="1" parent="1" source="p7GBY2X_nWyyRQyz9_gC-106" target="p7GBY2X_nWyyRQyz9_gC-108">
          <mxGeometry relative="1" as="geometry" />
        </mxCell>
        <mxCell id="p7GBY2X_nWyyRQyz9_gC-111" style="edgeStyle=orthogonalEdgeStyle;rounded=0;orthogonalLoop=1;jettySize=auto;html=1;exitX=0.5;exitY=1;exitDx=0;exitDy=0;entryX=0.5;entryY=0;entryDx=0;entryDy=0;endArrow=block;endFill=0;" edge="1" parent="1" source="p7GBY2X_nWyyRQyz9_gC-106" target="p7GBY2X_nWyyRQyz9_gC-86">
          <mxGeometry relative="1" as="geometry" />
        </mxCell>
        <mxCell id="p7GBY2X_nWyyRQyz9_gC-112" style="edgeStyle=orthogonalEdgeStyle;rounded=0;orthogonalLoop=1;jettySize=auto;html=1;exitX=0.5;exitY=1;exitDx=0;exitDy=0;entryX=1;entryY=0.5;entryDx=0;entryDy=0;fillColor=#fad9d5;strokeColor=#ae4132;" edge="1" parent="1" source="p7GBY2X_nWyyRQyz9_gC-106" target="p7GBY2X_nWyyRQyz9_gC-104">
          <mxGeometry relative="1" as="geometry" />
        </mxCell>
        <mxCell id="p7GBY2X_nWyyRQyz9_gC-113" style="edgeStyle=orthogonalEdgeStyle;rounded=0;orthogonalLoop=1;jettySize=auto;html=1;exitX=1;exitY=0.5;exitDx=0;exitDy=0;entryX=0;entryY=0.5;entryDx=0;entryDy=0;fillColor=#fa6800;strokeColor=#C73500;" edge="1" parent="1" source="p7GBY2X_nWyyRQyz9_gC-106" target="p7GBY2X_nWyyRQyz9_gC-25">
          <mxGeometry relative="1" as="geometry">
            <mxPoint x="1220" y="-10" as="targetPoint" />
            <Array as="points">
              <mxPoint x="1030" y="-965" />
              <mxPoint x="1030" y="-1120" />
              <mxPoint x="1530" y="-1120" />
              <mxPoint x="1530" y="-310" />
              <mxPoint x="1220" y="-310" />
              <mxPoint x="1220" y="-15" />
            </Array>
          </mxGeometry>
        </mxCell>
        <mxCell id="p7GBY2X_nWyyRQyz9_gC-138" style="edgeStyle=orthogonalEdgeStyle;rounded=0;orthogonalLoop=1;jettySize=auto;html=1;exitX=1;exitY=0.5;exitDx=0;exitDy=0;entryX=0;entryY=0.5;entryDx=0;entryDy=0;fillColor=#f0a30a;strokeColor=#BD7000;" edge="1" parent="1" source="p7GBY2X_nWyyRQyz9_gC-106" target="p7GBY2X_nWyyRQyz9_gC-22">
          <mxGeometry relative="1" as="geometry">
            <mxPoint x="1286" y="-270" as="targetPoint" />
            <Array as="points">
              <mxPoint x="1030" y="-965" />
              <mxPoint x="1030" y="-1130" />
              <mxPoint x="1530" y="-1130" />
              <mxPoint x="1530" y="-310" />
              <mxPoint x="1290" y="-310" />
              <mxPoint x="1290" y="-111" />
            </Array>
          </mxGeometry>
        </mxCell>
        <mxCell id="p7GBY2X_nWyyRQyz9_gC-106" value="StartMenu" style="swimlane;fontStyle=0;childLayout=stackLayout;horizontal=1;startSize=26;fillColor=#f9f7ed;horizontalStack=0;resizeParent=1;resizeParentMax=0;resizeLast=0;collapsible=1;marginBottom=0;whiteSpace=wrap;html=1;strokeColor=#36393d;" vertex="1" collapsed="1" parent="1">
          <mxGeometry x="925" y="-980" width="100" height="30" as="geometry">
            <mxRectangle x="630" y="-330" width="140" height="52" as="alternateBounds" />
          </mxGeometry>
        </mxCell>
        <mxCell id="p7GBY2X_nWyyRQyz9_gC-107" value="+ field: type" style="text;strokeColor=none;fillColor=none;align=left;verticalAlign=top;spacingLeft=4;spacingRight=4;overflow=hidden;rotatable=0;points=[[0,0.5],[1,0.5]];portConstraint=eastwest;whiteSpace=wrap;html=1;" vertex="1" parent="p7GBY2X_nWyyRQyz9_gC-106">
          <mxGeometry y="26" width="140" height="26" as="geometry" />
        </mxCell>
        <mxCell id="p7GBY2X_nWyyRQyz9_gC-108" value="Start" style="swimlane;fontStyle=0;childLayout=stackLayout;horizontal=1;startSize=26;fillColor=none;horizontalStack=0;resizeParent=1;resizeParentMax=0;resizeLast=0;collapsible=1;marginBottom=0;whiteSpace=wrap;html=1;" vertex="1" collapsed="1" parent="1">
          <mxGeometry x="940" y="-1070" width="70" height="30" as="geometry">
            <mxRectangle x="460" y="-400" width="140" height="52" as="alternateBounds" />
          </mxGeometry>
        </mxCell>
        <mxCell id="p7GBY2X_nWyyRQyz9_gC-109" value="+ field: type" style="text;strokeColor=none;fillColor=none;align=left;verticalAlign=top;spacingLeft=4;spacingRight=4;overflow=hidden;rotatable=0;points=[[0,0.5],[1,0.5]];portConstraint=eastwest;whiteSpace=wrap;html=1;" vertex="1" parent="p7GBY2X_nWyyRQyz9_gC-108">
          <mxGeometry y="26" width="140" height="26" as="geometry" />
        </mxCell>
        <mxCell id="p7GBY2X_nWyyRQyz9_gC-118" style="edgeStyle=orthogonalEdgeStyle;rounded=0;orthogonalLoop=1;jettySize=auto;html=1;exitX=0.5;exitY=0;exitDx=0;exitDy=0;entryX=0.5;entryY=1;entryDx=0;entryDy=0;" edge="1" parent="1" source="p7GBY2X_nWyyRQyz9_gC-114" target="p7GBY2X_nWyyRQyz9_gC-116">
          <mxGeometry relative="1" as="geometry" />
        </mxCell>
        <mxCell id="p7GBY2X_nWyyRQyz9_gC-119" style="edgeStyle=orthogonalEdgeStyle;rounded=0;orthogonalLoop=1;jettySize=auto;html=1;exitX=0.5;exitY=1;exitDx=0;exitDy=0;entryX=0.5;entryY=0;entryDx=0;entryDy=0;endArrow=block;endFill=0;fillColor=#b0e3e6;strokeColor=#0e8088;" edge="1" parent="1" source="p7GBY2X_nWyyRQyz9_gC-114" target="p7GBY2X_nWyyRQyz9_gC-86">
          <mxGeometry relative="1" as="geometry">
            <Array as="points">
              <mxPoint x="1115" y="-860" />
              <mxPoint x="975" y="-860" />
            </Array>
          </mxGeometry>
        </mxCell>
        <mxCell id="p7GBY2X_nWyyRQyz9_gC-120" style="edgeStyle=orthogonalEdgeStyle;rounded=0;orthogonalLoop=1;jettySize=auto;html=1;exitX=0.5;exitY=1;exitDx=0;exitDy=0;entryX=1;entryY=0.5;entryDx=0;entryDy=0;fillColor=#fad9d5;strokeColor=#ae4132;" edge="1" parent="1" source="p7GBY2X_nWyyRQyz9_gC-114" target="p7GBY2X_nWyyRQyz9_gC-104">
          <mxGeometry relative="1" as="geometry" />
        </mxCell>
        <mxCell id="p7GBY2X_nWyyRQyz9_gC-123" style="edgeStyle=orthogonalEdgeStyle;rounded=0;orthogonalLoop=1;jettySize=auto;html=1;exitX=1;exitY=0.5;exitDx=0;exitDy=0;entryX=0;entryY=0.5;entryDx=0;entryDy=0;fillColor=#fa6800;strokeColor=#C73500;" edge="1" parent="1" source="p7GBY2X_nWyyRQyz9_gC-114" target="p7GBY2X_nWyyRQyz9_gC-25">
          <mxGeometry relative="1" as="geometry">
            <mxPoint x="1560" y="-1120" as="targetPoint" />
            <Array as="points">
              <mxPoint x="1200" y="-965" />
              <mxPoint x="1200" y="-1120" />
              <mxPoint x="1530" y="-1120" />
              <mxPoint x="1530" y="-310" />
              <mxPoint x="1220" y="-310" />
              <mxPoint x="1220" y="-15" />
            </Array>
          </mxGeometry>
        </mxCell>
        <mxCell id="p7GBY2X_nWyyRQyz9_gC-139" style="edgeStyle=orthogonalEdgeStyle;rounded=0;orthogonalLoop=1;jettySize=auto;html=1;exitX=1;exitY=0.5;exitDx=0;exitDy=0;entryX=0;entryY=0.5;entryDx=0;entryDy=0;fillColor=#f0a30a;strokeColor=#BD7000;" edge="1" parent="1" source="p7GBY2X_nWyyRQyz9_gC-114" target="p7GBY2X_nWyyRQyz9_gC-22">
          <mxGeometry relative="1" as="geometry">
            <mxPoint x="1290" y="-309" as="targetPoint" />
            <Array as="points">
              <mxPoint x="1200" y="-965" />
              <mxPoint x="1200" y="-1130" />
              <mxPoint x="1530" y="-1130" />
              <mxPoint x="1530" y="-310" />
              <mxPoint x="1290" y="-310" />
              <mxPoint x="1290" y="-111" />
            </Array>
          </mxGeometry>
        </mxCell>
        <mxCell id="p7GBY2X_nWyyRQyz9_gC-114" value="ChooseGameMenu" style="swimlane;fontStyle=0;childLayout=stackLayout;horizontal=1;startSize=26;fillColor=#f9f7ed;horizontalStack=0;resizeParent=1;resizeParentMax=0;resizeLast=0;collapsible=1;marginBottom=0;whiteSpace=wrap;html=1;strokeColor=#36393d;" vertex="1" collapsed="1" parent="1">
          <mxGeometry x="1040" y="-980" width="150" height="30" as="geometry">
            <mxRectangle x="750" y="-360" width="140" height="52" as="alternateBounds" />
          </mxGeometry>
        </mxCell>
        <mxCell id="p7GBY2X_nWyyRQyz9_gC-115" value="+ field: type" style="text;strokeColor=none;fillColor=none;align=left;verticalAlign=top;spacingLeft=4;spacingRight=4;overflow=hidden;rotatable=0;points=[[0,0.5],[1,0.5]];portConstraint=eastwest;whiteSpace=wrap;html=1;" vertex="1" parent="p7GBY2X_nWyyRQyz9_gC-114">
          <mxGeometry y="26" width="140" height="26" as="geometry" />
        </mxCell>
        <mxCell id="p7GBY2X_nWyyRQyz9_gC-116" value="ChooseGame" style="swimlane;fontStyle=0;childLayout=stackLayout;horizontal=1;startSize=26;fillColor=none;horizontalStack=0;resizeParent=1;resizeParentMax=0;resizeLast=0;collapsible=1;marginBottom=0;whiteSpace=wrap;html=1;" vertex="1" collapsed="1" parent="1">
          <mxGeometry x="1055" y="-1070" width="120" height="30" as="geometry">
            <mxRectangle x="780" y="-472" width="140" height="52" as="alternateBounds" />
          </mxGeometry>
        </mxCell>
        <mxCell id="p7GBY2X_nWyyRQyz9_gC-117" value="+ field: type" style="text;strokeColor=none;fillColor=none;align=left;verticalAlign=top;spacingLeft=4;spacingRight=4;overflow=hidden;rotatable=0;points=[[0,0.5],[1,0.5]];portConstraint=eastwest;whiteSpace=wrap;html=1;" vertex="1" parent="p7GBY2X_nWyyRQyz9_gC-116">
          <mxGeometry y="26" width="140" height="26" as="geometry" />
        </mxCell>
        <mxCell id="p7GBY2X_nWyyRQyz9_gC-124" style="edgeStyle=orthogonalEdgeStyle;rounded=0;orthogonalLoop=1;jettySize=auto;html=1;exitX=0.5;exitY=1;exitDx=0;exitDy=0;entryX=0.5;entryY=0;entryDx=0;entryDy=0;endArrow=block;endFill=0;fillColor=#76608a;strokeColor=#432D57;" edge="1" parent="1" source="p7GBY2X_nWyyRQyz9_gC-121" target="p7GBY2X_nWyyRQyz9_gC-90">
          <mxGeometry relative="1" as="geometry">
            <Array as="points">
              <mxPoint x="1290" y="-840" />
              <mxPoint x="1255" y="-840" />
            </Array>
          </mxGeometry>
        </mxCell>
        <mxCell id="p7GBY2X_nWyyRQyz9_gC-125" style="edgeStyle=orthogonalEdgeStyle;rounded=0;orthogonalLoop=1;jettySize=auto;html=1;exitX=0.5;exitY=1;exitDx=0;exitDy=0;entryX=1;entryY=0.5;entryDx=0;entryDy=0;fillColor=#fad9d5;strokeColor=#ae4132;" edge="1" parent="1" source="p7GBY2X_nWyyRQyz9_gC-121" target="p7GBY2X_nWyyRQyz9_gC-104">
          <mxGeometry relative="1" as="geometry">
            <Array as="points">
              <mxPoint x="1290" y="-875" />
            </Array>
          </mxGeometry>
        </mxCell>
        <mxCell id="p7GBY2X_nWyyRQyz9_gC-128" style="edgeStyle=orthogonalEdgeStyle;rounded=0;orthogonalLoop=1;jettySize=auto;html=1;exitX=1;exitY=0.5;exitDx=0;exitDy=0;entryX=0;entryY=0.5;entryDx=0;entryDy=0;fillColor=#fa6800;strokeColor=#C73500;" edge="1" parent="1" source="p7GBY2X_nWyyRQyz9_gC-121" target="p7GBY2X_nWyyRQyz9_gC-25">
          <mxGeometry relative="1" as="geometry">
            <mxPoint x="1560" y="-1130" as="targetPoint" />
            <Array as="points">
              <mxPoint x="1380" y="-965" />
              <mxPoint x="1380" y="-1120" />
              <mxPoint x="1530" y="-1120" />
              <mxPoint x="1530" y="-310" />
              <mxPoint x="1220" y="-310" />
              <mxPoint x="1220" y="-15" />
            </Array>
          </mxGeometry>
        </mxCell>
        <mxCell id="p7GBY2X_nWyyRQyz9_gC-135" style="edgeStyle=orthogonalEdgeStyle;rounded=0;orthogonalLoop=1;jettySize=auto;html=1;exitX=0.5;exitY=0;exitDx=0;exitDy=0;entryX=0.5;entryY=1;entryDx=0;entryDy=0;" edge="1" parent="1" source="p7GBY2X_nWyyRQyz9_gC-121" target="p7GBY2X_nWyyRQyz9_gC-131">
          <mxGeometry relative="1" as="geometry" />
        </mxCell>
        <mxCell id="p7GBY2X_nWyyRQyz9_gC-140" style="edgeStyle=orthogonalEdgeStyle;rounded=0;orthogonalLoop=1;jettySize=auto;html=1;exitX=1;exitY=0.5;exitDx=0;exitDy=0;entryX=0;entryY=0.5;entryDx=0;entryDy=0;fillColor=#f0a30a;strokeColor=#BD7000;" edge="1" parent="1" source="p7GBY2X_nWyyRQyz9_gC-121" target="p7GBY2X_nWyyRQyz9_gC-22">
          <mxGeometry relative="1" as="geometry">
            <mxPoint x="1380" y="-1120" as="targetPoint" />
            <Array as="points">
              <mxPoint x="1380" y="-965" />
              <mxPoint x="1380" y="-1130" />
              <mxPoint x="1530" y="-1130" />
              <mxPoint x="1530" y="-310" />
              <mxPoint x="1290" y="-310" />
              <mxPoint x="1290" y="-111" />
            </Array>
          </mxGeometry>
        </mxCell>
        <mxCell id="p7GBY2X_nWyyRQyz9_gC-121" value="ManageAccountMenu" style="swimlane;fontStyle=0;childLayout=stackLayout;horizontal=1;startSize=26;fillColor=#f9f7ed;horizontalStack=0;resizeParent=1;resizeParentMax=0;resizeLast=0;collapsible=1;marginBottom=0;whiteSpace=wrap;html=1;strokeColor=#36393d;" vertex="1" collapsed="1" parent="1">
          <mxGeometry x="1210" y="-980" width="160" height="30" as="geometry">
            <mxRectangle x="910" y="-360" width="140" height="52" as="alternateBounds" />
          </mxGeometry>
        </mxCell>
        <mxCell id="p7GBY2X_nWyyRQyz9_gC-122" value="+ field: type" style="text;strokeColor=none;fillColor=none;align=left;verticalAlign=top;spacingLeft=4;spacingRight=4;overflow=hidden;rotatable=0;points=[[0,0.5],[1,0.5]];portConstraint=eastwest;whiteSpace=wrap;html=1;" vertex="1" parent="p7GBY2X_nWyyRQyz9_gC-121">
          <mxGeometry y="26" width="140" height="26" as="geometry" />
        </mxCell>
        <mxCell id="p7GBY2X_nWyyRQyz9_gC-129" style="edgeStyle=orthogonalEdgeStyle;rounded=0;orthogonalLoop=1;jettySize=auto;html=1;exitX=0.5;exitY=1;exitDx=0;exitDy=0;entryX=0.5;entryY=0;entryDx=0;entryDy=0;endArrow=block;endFill=0;fillColor=#647687;strokeColor=#314354;" edge="1" parent="1" source="p7GBY2X_nWyyRQyz9_gC-126" target="p7GBY2X_nWyyRQyz9_gC-92">
          <mxGeometry relative="1" as="geometry">
            <Array as="points">
              <mxPoint x="1450" y="-840" />
              <mxPoint x="1385" y="-840" />
            </Array>
          </mxGeometry>
        </mxCell>
        <mxCell id="p7GBY2X_nWyyRQyz9_gC-130" style="edgeStyle=orthogonalEdgeStyle;rounded=0;orthogonalLoop=1;jettySize=auto;html=1;exitX=0.5;exitY=1;exitDx=0;exitDy=0;entryX=1;entryY=0.5;entryDx=0;entryDy=0;fillColor=#fad9d5;strokeColor=#ae4132;" edge="1" parent="1" source="p7GBY2X_nWyyRQyz9_gC-126" target="p7GBY2X_nWyyRQyz9_gC-104">
          <mxGeometry relative="1" as="geometry" />
        </mxCell>
        <mxCell id="p7GBY2X_nWyyRQyz9_gC-136" style="edgeStyle=orthogonalEdgeStyle;rounded=0;orthogonalLoop=1;jettySize=auto;html=1;exitX=0.5;exitY=0;exitDx=0;exitDy=0;entryX=0.5;entryY=1;entryDx=0;entryDy=0;" edge="1" parent="1" source="p7GBY2X_nWyyRQyz9_gC-126" target="p7GBY2X_nWyyRQyz9_gC-133">
          <mxGeometry relative="1" as="geometry" />
        </mxCell>
        <mxCell id="p7GBY2X_nWyyRQyz9_gC-137" style="edgeStyle=orthogonalEdgeStyle;rounded=0;orthogonalLoop=1;jettySize=auto;html=1;exitX=1;exitY=0.5;exitDx=0;exitDy=0;entryX=0;entryY=0.5;entryDx=0;entryDy=0;fillColor=#fa6800;strokeColor=#C73500;" edge="1" parent="1" source="p7GBY2X_nWyyRQyz9_gC-126" target="p7GBY2X_nWyyRQyz9_gC-25">
          <mxGeometry relative="1" as="geometry">
            <mxPoint x="1540" y="-830" as="targetPoint" />
            <Array as="points">
              <mxPoint x="1530" y="-965" />
              <mxPoint x="1530" y="-310" />
              <mxPoint x="1220" y="-310" />
              <mxPoint x="1220" y="-15" />
            </Array>
          </mxGeometry>
        </mxCell>
        <mxCell id="p7GBY2X_nWyyRQyz9_gC-141" style="edgeStyle=orthogonalEdgeStyle;rounded=0;orthogonalLoop=1;jettySize=auto;html=1;exitX=1;exitY=0.5;exitDx=0;exitDy=0;entryX=0;entryY=0.5;entryDx=0;entryDy=0;fillColor=#f0a30a;strokeColor=#BD7000;" edge="1" parent="1" source="p7GBY2X_nWyyRQyz9_gC-126" target="p7GBY2X_nWyyRQyz9_gC-22">
          <mxGeometry relative="1" as="geometry">
            <Array as="points">
              <mxPoint x="1530" y="-965" />
              <mxPoint x="1530" y="-310" />
              <mxPoint x="1290" y="-310" />
              <mxPoint x="1290" y="-110" />
            </Array>
          </mxGeometry>
        </mxCell>
        <mxCell id="p7GBY2X_nWyyRQyz9_gC-126" value="EditAccountMenu" style="swimlane;fontStyle=0;childLayout=stackLayout;horizontal=1;startSize=26;fillColor=#f9f7ed;horizontalStack=0;resizeParent=1;resizeParentMax=0;resizeLast=0;collapsible=1;marginBottom=0;whiteSpace=wrap;html=1;strokeColor=#36393d;" vertex="1" collapsed="1" parent="1">
          <mxGeometry x="1385" y="-980" width="130" height="30" as="geometry">
            <mxRectangle x="1120" y="-350" width="140" height="52" as="alternateBounds" />
          </mxGeometry>
        </mxCell>
        <mxCell id="p7GBY2X_nWyyRQyz9_gC-127" value="+ field: type" style="text;strokeColor=none;fillColor=none;align=left;verticalAlign=top;spacingLeft=4;spacingRight=4;overflow=hidden;rotatable=0;points=[[0,0.5],[1,0.5]];portConstraint=eastwest;whiteSpace=wrap;html=1;" vertex="1" parent="p7GBY2X_nWyyRQyz9_gC-126">
          <mxGeometry y="26" width="140" height="26" as="geometry" />
        </mxCell>
        <mxCell id="p7GBY2X_nWyyRQyz9_gC-131" value="ManageAccount" style="swimlane;fontStyle=0;childLayout=stackLayout;horizontal=1;startSize=26;fillColor=none;horizontalStack=0;resizeParent=1;resizeParentMax=0;resizeLast=0;collapsible=1;marginBottom=0;whiteSpace=wrap;html=1;" vertex="1" collapsed="1" parent="1">
          <mxGeometry x="1225" y="-1070" width="130" height="30" as="geometry">
            <mxRectangle x="920" y="-450" width="140" height="52" as="alternateBounds" />
          </mxGeometry>
        </mxCell>
        <mxCell id="p7GBY2X_nWyyRQyz9_gC-132" value="+ field: type" style="text;strokeColor=none;fillColor=none;align=left;verticalAlign=top;spacingLeft=4;spacingRight=4;overflow=hidden;rotatable=0;points=[[0,0.5],[1,0.5]];portConstraint=eastwest;whiteSpace=wrap;html=1;" vertex="1" parent="p7GBY2X_nWyyRQyz9_gC-131">
          <mxGeometry y="26" width="140" height="26" as="geometry" />
        </mxCell>
        <mxCell id="p7GBY2X_nWyyRQyz9_gC-133" value="EditAccount" style="swimlane;fontStyle=0;childLayout=stackLayout;horizontal=1;startSize=26;fillColor=none;horizontalStack=0;resizeParent=1;resizeParentMax=0;resizeLast=0;collapsible=1;marginBottom=0;whiteSpace=wrap;html=1;" vertex="1" collapsed="1" parent="1">
          <mxGeometry x="1400" y="-1070" width="100" height="30" as="geometry">
            <mxRectangle x="1100.5" y="-461" width="140" height="52" as="alternateBounds" />
          </mxGeometry>
        </mxCell>
        <mxCell id="p7GBY2X_nWyyRQyz9_gC-134" value="+ field: type" style="text;strokeColor=none;fillColor=none;align=left;verticalAlign=top;spacingLeft=4;spacingRight=4;overflow=hidden;rotatable=0;points=[[0,0.5],[1,0.5]];portConstraint=eastwest;whiteSpace=wrap;html=1;" vertex="1" parent="p7GBY2X_nWyyRQyz9_gC-133">
          <mxGeometry y="26" width="140" height="26" as="geometry" />
        </mxCell>
        <mxCell id="p7GBY2X_nWyyRQyz9_gC-153" style="edgeStyle=orthogonalEdgeStyle;rounded=0;orthogonalLoop=1;jettySize=auto;html=1;exitX=0;exitY=0.5;exitDx=0;exitDy=0;entryX=1;entryY=0.5;entryDx=0;entryDy=0;" edge="1" parent="1" source="p7GBY2X_nWyyRQyz9_gC-142" target="p7GBY2X_nWyyRQyz9_gC-144">
          <mxGeometry relative="1" as="geometry" />
        </mxCell>
        <mxCell id="p7GBY2X_nWyyRQyz9_gC-157" style="edgeStyle=orthogonalEdgeStyle;rounded=0;orthogonalLoop=1;jettySize=auto;html=1;exitX=0.5;exitY=1;exitDx=0;exitDy=0;entryX=0;entryY=0.5;entryDx=0;entryDy=0;fillColor=#d5e8d4;strokeColor=#82b366;" edge="1" parent="1" source="p7GBY2X_nWyyRQyz9_gC-142" target="p7GBY2X_nWyyRQyz9_gC-11">
          <mxGeometry relative="1" as="geometry" />
        </mxCell>
        <mxCell id="p7GBY2X_nWyyRQyz9_gC-158" style="edgeStyle=orthogonalEdgeStyle;rounded=0;orthogonalLoop=1;jettySize=auto;html=1;exitX=1;exitY=0.5;exitDx=0;exitDy=0;entryX=0;entryY=0.5;entryDx=0;entryDy=0;fillColor=#b0e3e6;strokeColor=#0e8088;" edge="1" parent="1" source="p7GBY2X_nWyyRQyz9_gC-142" target="p7GBY2X_nWyyRQyz9_gC-86">
          <mxGeometry relative="1" as="geometry">
            <mxPoint x="490" y="-750" as="targetPoint" />
            <Array as="points">
              <mxPoint x="470" y="-525" />
              <mxPoint x="470" y="-795" />
            </Array>
          </mxGeometry>
        </mxCell>
        <mxCell id="p7GBY2X_nWyyRQyz9_gC-161" style="edgeStyle=orthogonalEdgeStyle;rounded=0;orthogonalLoop=1;jettySize=auto;html=1;exitX=1;exitY=0.5;exitDx=0;exitDy=0;entryX=0;entryY=0.5;entryDx=0;entryDy=0;fillColor=#fad9d5;strokeColor=#ae4132;" edge="1" parent="1" source="p7GBY2X_nWyyRQyz9_gC-142" target="p7GBY2X_nWyyRQyz9_gC-104">
          <mxGeometry relative="1" as="geometry">
            <Array as="points">
              <mxPoint x="480" y="-525" />
              <mxPoint x="480" y="-875" />
            </Array>
          </mxGeometry>
        </mxCell>
        <mxCell id="p7GBY2X_nWyyRQyz9_gC-164" style="edgeStyle=orthogonalEdgeStyle;rounded=0;orthogonalLoop=1;jettySize=auto;html=1;exitX=1;exitY=0.5;exitDx=0;exitDy=0;entryX=0;entryY=0.5;entryDx=0;entryDy=0;fillColor=#fa6800;strokeColor=#C73500;" edge="1" parent="1" source="p7GBY2X_nWyyRQyz9_gC-142" target="p7GBY2X_nWyyRQyz9_gC-25">
          <mxGeometry relative="1" as="geometry">
            <mxPoint x="470" y="-912.1052631578948" as="targetPoint" />
            <Array as="points">
              <mxPoint x="530" y="-525" />
              <mxPoint x="530" y="-510" />
              <mxPoint x="1220" y="-510" />
              <mxPoint x="1220" y="-15" />
            </Array>
          </mxGeometry>
        </mxCell>
        <mxCell id="p7GBY2X_nWyyRQyz9_gC-168" style="edgeStyle=orthogonalEdgeStyle;rounded=0;orthogonalLoop=1;jettySize=auto;html=1;exitX=1;exitY=0.5;exitDx=0;exitDy=0;entryX=0;entryY=0.5;entryDx=0;entryDy=0;fillColor=#f0a30a;strokeColor=#BD7000;" edge="1" parent="1" source="p7GBY2X_nWyyRQyz9_gC-142" target="p7GBY2X_nWyyRQyz9_gC-22">
          <mxGeometry relative="1" as="geometry">
            <Array as="points">
              <mxPoint x="530" y="-525" />
              <mxPoint x="530" y="-510" />
              <mxPoint x="1290" y="-510" />
              <mxPoint x="1290" y="-110" />
            </Array>
          </mxGeometry>
        </mxCell>
        <mxCell id="p7GBY2X_nWyyRQyz9_gC-142" value="AccountSelectionMenu" style="swimlane;fontStyle=0;childLayout=stackLayout;horizontal=1;startSize=26;fillColor=#f9f7ed;horizontalStack=0;resizeParent=1;resizeParentMax=0;resizeLast=0;collapsible=1;marginBottom=0;whiteSpace=wrap;html=1;strokeColor=#36393d;" vertex="1" collapsed="1" parent="1">
          <mxGeometry x="270" y="-540" width="160" height="30" as="geometry">
            <mxRectangle x="-80" y="188" width="140" height="52" as="alternateBounds" />
          </mxGeometry>
        </mxCell>
        <mxCell id="p7GBY2X_nWyyRQyz9_gC-143" value="+ field: type" style="text;strokeColor=none;fillColor=none;align=left;verticalAlign=top;spacingLeft=4;spacingRight=4;overflow=hidden;rotatable=0;points=[[0,0.5],[1,0.5]];portConstraint=eastwest;whiteSpace=wrap;html=1;" vertex="1" parent="p7GBY2X_nWyyRQyz9_gC-142">
          <mxGeometry y="26" width="140" height="26" as="geometry" />
        </mxCell>
        <mxCell id="p7GBY2X_nWyyRQyz9_gC-144" value="AccountSelection" style="swimlane;fontStyle=0;childLayout=stackLayout;horizontal=1;startSize=26;fillColor=none;horizontalStack=0;resizeParent=1;resizeParentMax=0;resizeLast=0;collapsible=1;marginBottom=0;whiteSpace=wrap;html=1;" vertex="1" collapsed="1" parent="1">
          <mxGeometry x="100" y="-540" width="130" height="30" as="geometry">
            <mxRectangle x="-80" y="260" width="140" height="52" as="alternateBounds" />
          </mxGeometry>
        </mxCell>
        <mxCell id="p7GBY2X_nWyyRQyz9_gC-145" value="+ field: type" style="text;strokeColor=none;fillColor=none;align=left;verticalAlign=top;spacingLeft=4;spacingRight=4;overflow=hidden;rotatable=0;points=[[0,0.5],[1,0.5]];portConstraint=eastwest;whiteSpace=wrap;html=1;" vertex="1" parent="p7GBY2X_nWyyRQyz9_gC-144">
          <mxGeometry y="26" width="140" height="26" as="geometry" />
        </mxCell>
        <mxCell id="p7GBY2X_nWyyRQyz9_gC-152" style="edgeStyle=orthogonalEdgeStyle;rounded=0;orthogonalLoop=1;jettySize=auto;html=1;exitX=0;exitY=0.5;exitDx=0;exitDy=0;entryX=1;entryY=0.5;entryDx=0;entryDy=0;" edge="1" parent="1" source="p7GBY2X_nWyyRQyz9_gC-146" target="p7GBY2X_nWyyRQyz9_gC-148">
          <mxGeometry relative="1" as="geometry" />
        </mxCell>
        <mxCell id="p7GBY2X_nWyyRQyz9_gC-159" style="edgeStyle=orthogonalEdgeStyle;rounded=0;orthogonalLoop=1;jettySize=auto;html=1;exitX=1;exitY=0.5;exitDx=0;exitDy=0;entryX=0;entryY=0.5;entryDx=0;entryDy=0;fillColor=#b0e3e6;strokeColor=#0e8088;" edge="1" parent="1" source="p7GBY2X_nWyyRQyz9_gC-146" target="p7GBY2X_nWyyRQyz9_gC-86">
          <mxGeometry relative="1" as="geometry">
            <Array as="points">
              <mxPoint x="470" y="-595" />
              <mxPoint x="470" y="-795" />
            </Array>
          </mxGeometry>
        </mxCell>
        <mxCell id="p7GBY2X_nWyyRQyz9_gC-163" style="edgeStyle=orthogonalEdgeStyle;rounded=0;orthogonalLoop=1;jettySize=auto;html=1;exitX=1;exitY=0.5;exitDx=0;exitDy=0;entryX=0;entryY=0.5;entryDx=0;entryDy=0;fillColor=#fa6800;strokeColor=#C73500;" edge="1" parent="1" source="p7GBY2X_nWyyRQyz9_gC-146" target="p7GBY2X_nWyyRQyz9_gC-25">
          <mxGeometry relative="1" as="geometry">
            <mxPoint x="470" y="-911.578947368421" as="targetPoint" />
            <Array as="points">
              <mxPoint x="530" y="-595" />
              <mxPoint x="530" y="-510" />
              <mxPoint x="1220" y="-510" />
              <mxPoint x="1220" y="-15" />
            </Array>
          </mxGeometry>
        </mxCell>
        <mxCell id="p7GBY2X_nWyyRQyz9_gC-167" style="edgeStyle=orthogonalEdgeStyle;rounded=0;orthogonalLoop=1;jettySize=auto;html=1;exitX=1;exitY=0.5;exitDx=0;exitDy=0;entryX=0;entryY=0.5;entryDx=0;entryDy=0;fillColor=#f0a30a;strokeColor=#BD7000;" edge="1" parent="1" source="p7GBY2X_nWyyRQyz9_gC-146" target="p7GBY2X_nWyyRQyz9_gC-22">
          <mxGeometry relative="1" as="geometry">
            <Array as="points">
              <mxPoint x="530" y="-595" />
              <mxPoint x="530" y="-510" />
              <mxPoint x="1290" y="-510" />
              <mxPoint x="1290" y="-110" />
            </Array>
          </mxGeometry>
        </mxCell>
        <mxCell id="p7GBY2X_nWyyRQyz9_gC-146" value="WinScreenMenu" style="swimlane;fontStyle=0;childLayout=stackLayout;horizontal=1;startSize=26;fillColor=#f9f7ed;horizontalStack=0;resizeParent=1;resizeParentMax=0;resizeLast=0;collapsible=1;marginBottom=0;whiteSpace=wrap;html=1;strokeColor=#36393d;" vertex="1" collapsed="1" parent="1">
          <mxGeometry x="300" y="-610" width="130" height="30" as="geometry">
            <mxRectangle x="-80" y="340" width="140" height="52" as="alternateBounds" />
          </mxGeometry>
        </mxCell>
        <mxCell id="p7GBY2X_nWyyRQyz9_gC-147" value="+ field: type" style="text;strokeColor=none;fillColor=none;align=left;verticalAlign=top;spacingLeft=4;spacingRight=4;overflow=hidden;rotatable=0;points=[[0,0.5],[1,0.5]];portConstraint=eastwest;whiteSpace=wrap;html=1;" vertex="1" parent="p7GBY2X_nWyyRQyz9_gC-146">
          <mxGeometry y="26" width="140" height="26" as="geometry" />
        </mxCell>
        <mxCell id="p7GBY2X_nWyyRQyz9_gC-148" value="WinScreen" style="swimlane;fontStyle=0;childLayout=stackLayout;horizontal=1;startSize=26;fillColor=none;horizontalStack=0;resizeParent=1;resizeParentMax=0;resizeLast=0;collapsible=1;marginBottom=0;whiteSpace=wrap;html=1;" vertex="1" collapsed="1" parent="1">
          <mxGeometry x="150" y="-610" width="100" height="30" as="geometry">
            <mxRectangle x="-80" y="410" width="140" height="52" as="alternateBounds" />
          </mxGeometry>
        </mxCell>
        <mxCell id="p7GBY2X_nWyyRQyz9_gC-149" value="+ field: type" style="text;strokeColor=none;fillColor=none;align=left;verticalAlign=top;spacingLeft=4;spacingRight=4;overflow=hidden;rotatable=0;points=[[0,0.5],[1,0.5]];portConstraint=eastwest;whiteSpace=wrap;html=1;" vertex="1" parent="p7GBY2X_nWyyRQyz9_gC-148">
          <mxGeometry y="26" width="140" height="26" as="geometry" />
        </mxCell>
        <mxCell id="p7GBY2X_nWyyRQyz9_gC-156" style="edgeStyle=orthogonalEdgeStyle;rounded=0;orthogonalLoop=1;jettySize=auto;html=1;exitX=0.5;exitY=1;exitDx=0;exitDy=0;entryX=0.5;entryY=0;entryDx=0;entryDy=0;endArrow=block;endFill=0;" edge="1" parent="1" source="p7GBY2X_nWyyRQyz9_gC-150" target="p7GBY2X_nWyyRQyz9_gC-146">
          <mxGeometry relative="1" as="geometry" />
        </mxCell>
        <mxCell id="p7GBY2X_nWyyRQyz9_gC-160" style="edgeStyle=orthogonalEdgeStyle;rounded=0;orthogonalLoop=1;jettySize=auto;html=1;exitX=1;exitY=0.5;exitDx=0;exitDy=0;entryX=0;entryY=0.5;entryDx=0;entryDy=0;fillColor=#b0e3e6;strokeColor=#0e8088;" edge="1" parent="1" source="p7GBY2X_nWyyRQyz9_gC-150" target="p7GBY2X_nWyyRQyz9_gC-86">
          <mxGeometry relative="1" as="geometry">
            <mxPoint x="651.9047619047619" y="-750" as="targetPoint" />
            <Array as="points">
              <mxPoint x="470" y="-665" />
              <mxPoint x="470" y="-795" />
            </Array>
          </mxGeometry>
        </mxCell>
        <mxCell id="p7GBY2X_nWyyRQyz9_gC-162" style="edgeStyle=orthogonalEdgeStyle;rounded=0;orthogonalLoop=1;jettySize=auto;html=1;exitX=1;exitY=0.5;exitDx=0;exitDy=0;entryX=0;entryY=0.5;entryDx=0;entryDy=0;fillColor=#fa6800;strokeColor=#C73500;" edge="1" parent="1" source="p7GBY2X_nWyyRQyz9_gC-150" target="p7GBY2X_nWyyRQyz9_gC-25">
          <mxGeometry relative="1" as="geometry">
            <mxPoint x="1221.3333333333335" y="-10" as="targetPoint" />
            <Array as="points">
              <mxPoint x="530" y="-665" />
              <mxPoint x="530" y="-510" />
              <mxPoint x="1220" y="-510" />
              <mxPoint x="1220" y="-15" />
            </Array>
          </mxGeometry>
        </mxCell>
        <mxCell id="p7GBY2X_nWyyRQyz9_gC-165" style="edgeStyle=orthogonalEdgeStyle;rounded=0;orthogonalLoop=1;jettySize=auto;html=1;exitX=1;exitY=0.5;exitDx=0;exitDy=0;entryX=0;entryY=0.5;entryDx=0;entryDy=0;fillColor=#f0a30a;strokeColor=#BD7000;" edge="1" parent="1" source="p7GBY2X_nWyyRQyz9_gC-150" target="p7GBY2X_nWyyRQyz9_gC-22">
          <mxGeometry relative="1" as="geometry">
            <Array as="points">
              <mxPoint x="530" y="-665" />
              <mxPoint x="530" y="-510" />
              <mxPoint x="1290" y="-510" />
              <mxPoint x="1290" y="-110" />
            </Array>
          </mxGeometry>
        </mxCell>
        <mxCell id="p7GBY2X_nWyyRQyz9_gC-150" value="WinScreenMenuDisco" style="swimlane;fontStyle=0;childLayout=stackLayout;horizontal=1;startSize=26;fillColor=#f9f7ed;horizontalStack=0;resizeParent=1;resizeParentMax=0;resizeLast=0;collapsible=1;marginBottom=0;whiteSpace=wrap;html=1;strokeColor=#36393d;" vertex="1" collapsed="1" parent="1">
          <mxGeometry x="285" y="-680" width="160" height="30" as="geometry">
            <mxRectangle x="-80" y="484" width="140" height="52" as="alternateBounds" />
          </mxGeometry>
        </mxCell>
        <mxCell id="p7GBY2X_nWyyRQyz9_gC-151" value="+ field: type" style="text;strokeColor=none;fillColor=none;align=left;verticalAlign=top;spacingLeft=4;spacingRight=4;overflow=hidden;rotatable=0;points=[[0,0.5],[1,0.5]];portConstraint=eastwest;whiteSpace=wrap;html=1;" vertex="1" parent="p7GBY2X_nWyyRQyz9_gC-150">
          <mxGeometry y="26" width="140" height="26" as="geometry" />
        </mxCell>
        <mxCell id="p7GBY2X_nWyyRQyz9_gC-176" style="edgeStyle=orthogonalEdgeStyle;rounded=0;orthogonalLoop=1;jettySize=auto;html=1;exitX=0.5;exitY=0;exitDx=0;exitDy=0;entryX=0.75;entryY=1;entryDx=0;entryDy=0;endArrow=block;endFill=0;fillColor=#e1d5e7;strokeColor=#9673a6;" edge="1" parent="1" source="p7GBY2X_nWyyRQyz9_gC-172" target="p7GBY2X_nWyyRQyz9_gC-66">
          <mxGeometry relative="1" as="geometry" />
        </mxCell>
        <mxCell id="p7GBY2X_nWyyRQyz9_gC-172" value="PygameBuilder" style="swimlane;fontStyle=0;childLayout=stackLayout;horizontal=1;startSize=26;fillColor=none;horizontalStack=0;resizeParent=1;resizeParentMax=0;resizeLast=0;collapsible=1;marginBottom=0;whiteSpace=wrap;html=1;" vertex="1" collapsed="1" parent="1">
          <mxGeometry x="520" y="-155.5" width="120" height="30" as="geometry">
            <mxRectangle x="130" y="-190" width="140" height="52" as="alternateBounds" />
          </mxGeometry>
        </mxCell>
        <mxCell id="p7GBY2X_nWyyRQyz9_gC-173" value="+ field: type" style="text;strokeColor=none;fillColor=none;align=left;verticalAlign=top;spacingLeft=4;spacingRight=4;overflow=hidden;rotatable=0;points=[[0,0.5],[1,0.5]];portConstraint=eastwest;whiteSpace=wrap;html=1;" vertex="1" parent="p7GBY2X_nWyyRQyz9_gC-172">
          <mxGeometry y="26" width="140" height="26" as="geometry" />
        </mxCell>
        <mxCell id="p7GBY2X_nWyyRQyz9_gC-177" style="edgeStyle=orthogonalEdgeStyle;rounded=0;orthogonalLoop=1;jettySize=auto;html=1;exitX=0.5;exitY=0;exitDx=0;exitDy=0;entryX=0.5;entryY=1;entryDx=0;entryDy=0;fillColor=#1ba1e2;strokeColor=#006EAF;endArrow=block;endFill=0;" edge="1" parent="1" source="p7GBY2X_nWyyRQyz9_gC-174" target="p7GBY2X_nWyyRQyz9_gC-13">
          <mxGeometry relative="1" as="geometry" />
        </mxCell>
        <mxCell id="p7GBY2X_nWyyRQyz9_gC-174" value="PostgreSqlAdapter" style="swimlane;fontStyle=0;childLayout=stackLayout;horizontal=1;startSize=26;fillColor=none;horizontalStack=0;resizeParent=1;resizeParentMax=0;resizeLast=0;collapsible=1;marginBottom=0;whiteSpace=wrap;html=1;" vertex="1" collapsed="1" parent="1">
          <mxGeometry x="685" y="200" width="140" height="30" as="geometry">
            <mxRectangle x="130" y="-120" width="140" height="52" as="alternateBounds" />
          </mxGeometry>
        </mxCell>
        <mxCell id="p7GBY2X_nWyyRQyz9_gC-175" value="+ field: type" style="text;strokeColor=none;fillColor=none;align=left;verticalAlign=top;spacingLeft=4;spacingRight=4;overflow=hidden;rotatable=0;points=[[0,0.5],[1,0.5]];portConstraint=eastwest;whiteSpace=wrap;html=1;" vertex="1" parent="p7GBY2X_nWyyRQyz9_gC-174">
          <mxGeometry y="26" width="140" height="26" as="geometry" />
        </mxCell>
      </root>
    </mxGraphModel>
  </diagram>
</mxfile>
